<svg id="ejBedQE7YRU1" xmlns="http://www.w3.org/2000/svg" xmlns:xlink="http://www.w3.org/1999/xlink" viewBox="0 0 555.7 885.2" shape-rendering="geometricPrecision" text-rendering="geometricPrecision"><style><![CDATA[#ejBedQE7YRU41_to {animation: ejBedQE7YRU41_to__to 7894.736842105263ms linear infinite alternate forwards}@keyframes ejBedQE7YRU41_to__to { 0% {transform: translate(277.805545px,392.770825px)} 25% {transform: translate(277.805545px,392.770825px)} 40.416667% {transform: translate(369.270936px,793.619541px)} 57.5% {transform: translate(369.270936px,413.42566px)} 65% {transform: translate(271.506793px,398.175091px)} 100% {transform: translate(271.506793px,398.175091px)}} #ejBedQE7YRU41_tr {animation: ejBedQE7YRU41_tr__tr 7894.736842105263ms linear infinite alternate forwards}@keyframes ejBedQE7YRU41_tr__tr { 0% {transform: rotate(0deg)} 25% {transform: rotate(0deg)} 40.833333% {transform: rotate(34.806671deg)} 57.5% {transform: rotate(34.806671deg)} 65% {transform: rotate(0deg)} 100% {transform: rotate(0deg)}} #ejBedQE7YRU41_ts {animation: ejBedQE7YRU41_ts__ts 7894.736842105263ms linear infinite alternate forwards}@keyframes ejBedQE7YRU41_ts__ts { 0% {transform: scale(1,1)} 25% {transform: scale(1,1)} 40.833333% {transform: scale(0.259081,0.259085)} 57.5% {transform: scale(0.259081,0.259085)} 65% {transform: scale(1,1)} 100% {transform: scale(1,1)}}]]></style><g id="ejBedQE7YRU2"><g id="ejBedQE7YRU3" transform="matrix(1 0 0 1 241.042 436.482)"><path id="ejBedQE7YRU4" d="M226,36.2L102.6,36.4C101.2,36.4,100.1,37.5,100.1,38.9L100.1,293.7L100.1,293.7C100.4,297.5,103.2,301.4,108.5,304.4L145.6,325.8C155.9,331.7,171.4,332.4,180.3,327.2L222.4,302.9C226.7,300.4,228.6,297.1,228.3,293.6L228.3,293.6L228.3,38.6C228.5,37.4,227.4,36.2,226,36.2Z" fill="rgb(155,217,228)" stroke="none" stroke-width="1"/><path id="ejBedQE7YRU5" d="M165.3,334.7C157.8,334.8,150.4,332.9,143.8,329.3L106.7,307.9C101.9,305.1,98.6,301.6,97.2,297.7L96.4,297.7L96.4,293.9L96.4,39.1C96.4,35.6,99.2,32.8,102.7,32.8L226,32.4C229.5,32.4,232.3,35.2,232.4,38.7L232.4,297.5L231.9,297.5C230.9,301,228.4,304.1,224.5,306.3L182.4,330.6C177.7,333.3,171.6,334.7,165.3,334.7ZM103.9,293.2L103.9,293.5C104.1,296.1,106.5,298.9,110.4,301.2L147.5,322.6C156.6,327.8,170.7,328.5,178.4,324L220.5,299.7C222.5,298.6,224.7,296.7,224.5,294L224.2,289.9L224.5,289.9L224.5,40.1L103.6,40.3L103.9,293.2Z" fill="rgb(0,48,103)" stroke="none" stroke-width="1"/></g><g id="ejBedQE7YRU6" transform="matrix(1 0 0 1 313.998 440.406)"><path id="ejBedQE7YRU7" d="M153,32.4L96.2,32.5L96.2,326.8C100.1,326.5,104,325.4,107.4,323.6L149.5,299.3C153.8,296.8,155.7,293.5,155.4,290L155.4,290L155.4,35C155.6,33.6,154.4,32.4,153,32.4C153,32.4,153,32.4,153,32.4Z" fill="rgb(0,48,103)" stroke="none" stroke-width="1"/></g><g id="ejBedQE7YRU8" transform="matrix(1 0 0 1 241.042 399.563)"><path id="ejBedQE7YRU9" d="M222.6,82.7L180.4,107C171.5,112.1,155.9,111.5,145.7,105.6L108.6,84.2C98.3,78.3,97.2,69.3,106.1,64.1L148.2,39.8C157.1,34.7,172.7,35.3,182.9,41.2L220,62.6C230.4,68.5,231.5,77.5,222.6,82.7Z" fill="rgb(255,255,255)" stroke="none" stroke-width="1"/><path id="ejBedQE7YRU10" d="M165.3,114.3C157.8,114.4,150.4,112.5,143.8,108.9L106.7,87.5C100.1,83.7,96.3,78.4,96.3,72.9C96.3,68.1,99.1,63.8,104.2,60.9L146.3,36.6C156.4,30.8,173.3,31.4,184.9,38L222,59.3C228.6,63.1,232.4,68.5,232.4,73.9C232.4,78.7,229.6,83,224.5,85.9L182.4,110.2C177.7,113,171.6,114.3,165.3,114.3ZM163.2,40.1C158.2,40.1,153.5,41.1,150.1,43.1L108,67.3C106.1,68.4,103.9,70.2,103.9,72.7C103.9,75.3,106.4,78.4,110.5,80.7L147.6,102.1C156.7,107.3,170.8,108,178.5,103.5L220.6,79.2C222.5,78.1,224.7,76.3,224.7,73.8C224.7,71.1,222.2,68.1,218.1,65.7L181,44.5C175.6,41.5,169.4,40,163.2,40.1Z" fill="rgb(0,48,103)" stroke="none" stroke-width="1"/></g><g id="ejBedQE7YRU11" transform="matrix(1 0 0 1 290.667 474.649)"><rect id="ejBedQE7YRU12" width="7.6" height="257.1" rx="0" ry="0" transform="matrix(1 0 0 1 96.2 32.4)" fill="rgb(0,48,103)" stroke="none" stroke-width="1"/></g><g id="ejBedQE7YRU13" transform="matrix(1 0 0 1 355.963 464.402)"><rect id="ejBedQE7YRU14" width="5.9" height="236.5" rx="0" ry="0" transform="matrix(1 0 0 1 96.2 32.4)" fill="rgb(155,217,228)" stroke="none" stroke-width="1"/></g></g><g id="ejBedQE7YRU15" transform="matrix(1 0 0 1 0.000002 0.000002)"><g id="ejBedQE7YRU16" transform="matrix(1 0 0 1 154.723 656.217)"><path id="ejBedQE7YRU17" d="M226,36.2L102.6,36.4C101.2,36.4,100.1,37.5,100.1,38.9L100.1,164.8L100.1,164.8C100.4,168.6,103.2,172.5,108.5,175.6L145.6,197C155.9,202.9,171.4,203.6,180.3,198.4L222.4,174.1C226.7,171.6,228.6,168.3,228.3,164.8L228.3,164.8L228.3,38.8C228.5,37.4,227.4,36.2,226,36.2Z" fill="rgb(155,217,228)" stroke="none" stroke-width="1"/><path id="ejBedQE7YRU18" d="M165.3,205.8C157.8,205.9,150.4,204,143.8,200.4L106.7,179C101.9,176.2,98.6,172.7,97.2,168.8L96.4,168.8L96.4,165L96.4,39.1C96.4,35.6,99.2,32.8,102.7,32.8L226,32.4C229.5,32.4,232.4,35.2,232.4,38.7L232.4,168.6L231.9,168.6C230.9,172.1,228.4,175.2,224.5,177.4L182.4,201.7C177.7,204.5,171.6,205.8,165.3,205.8ZM103.9,164.3L103.9,164.6C104.1,167.2,106.5,170,110.4,172.3L147.5,193.7C156.6,198.9,170.7,199.6,178.4,195.1L220.5,170.8C222.5,169.7,224.7,167.8,224.5,165.1L224.2,161L224.5,161L224.5,40L103.6,40.2L103.9,164.3Z" fill="rgb(0,48,103)" stroke="none" stroke-width="1"/></g><g id="ejBedQE7YRU19" transform="matrix(1 0 0 1 227.68 660.141)"><path id="ejBedQE7YRU20" d="M153,32.4L96.2,32.5L96.2,198C100.1,197.7,104,196.6,107.4,194.8L149.5,170.5C153.8,168,155.7,164.7,155.4,161.2L155.4,161.2L155.4,35C155.6,33.6,154.4,32.4,153,32.4C153,32.4,153,32.4,153,32.4Z" fill="rgb(0,48,103)" stroke="none" stroke-width="1"/></g><g id="ejBedQE7YRU21" transform="matrix(1 0 0 1 154.723 619.296)"><path id="ejBedQE7YRU22" d="M222.6,82.7L180.4,107C171.5,112.1,155.9,111.5,145.7,105.6L108.6,84.2C98.3,78.3,97.2,69.3,106.1,64.1L148.2,39.8C157.1,34.7,172.7,35.3,182.9,41.2L220,62.6C230.4,68.5,231.5,77.5,222.6,82.7Z" fill="rgb(255,255,255)" stroke="none" stroke-width="1"/><path id="ejBedQE7YRU23" d="M165.3,114.3C157.8,114.4,150.4,112.5,143.8,108.9L106.7,87.5C100.1,83.7,96.3,78.3,96.3,72.9C96.3,68.1,99.1,63.8,104.2,60.9L146.3,36.6C156.4,30.8,173.3,31.4,184.9,38L222,59.3C228.6,63.1,232.4,68.5,232.4,73.9C232.4,78.7,229.6,83,224.5,85.9L182.4,110.2C177.7,113,171.6,114.3,165.3,114.3ZM163.2,40.1C158.2,40.1,153.5,41.1,150.1,43.1L108,67.3C106.1,68.4,103.9,70.2,103.9,72.7C103.9,75.4,106.4,78.4,110.5,80.8L147.6,102.2C156.7,107.4,170.8,108.1,178.5,103.6L220.6,79.3C222.5,78.2,224.7,76.4,224.7,73.9C224.7,71.2,222.2,68.2,218.1,65.8L181,44.5C175.6,41.5,169.4,40,163.2,40.1L163.2,40.1Z" fill="rgb(0,48,103)" stroke="none" stroke-width="1"/></g><g id="ejBedQE7YRU24" transform="matrix(1 0 0 1 204.35 694.384)"><rect id="ejBedQE7YRU25" width="7.6" height="128.3" rx="0" ry="0" transform="matrix(1 0 0 1 96.2 32.4)" fill="rgb(0,48,103)" stroke="none" stroke-width="1"/></g><g id="ejBedQE7YRU26" transform="matrix(1 0 0 1 269.645 684.135)"><rect id="ejBedQE7YRU27" width="5.9" height="107.7" rx="0" ry="0" transform="matrix(1 0 0 1 96.2 32.4)" fill="rgb(155,217,228)" stroke="none" stroke-width="1"/></g></g><g id="ejBedQE7YRU28" transform="matrix(1 0 0 1 305.182 730.33)"><g id="ejBedQE7YRU29" transform="matrix(1 0 0 1 0 36.925)"><path id="ejBedQE7YRU30" d="M226,36.2L102.6,36.4C101.2,36.4,100.1,37.5,100.1,38.9L100.1,77L100.1,77C100.4,80.8,103.2,84.7,108.5,87.7L145.6,109.1C155.9,115,171.4,115.7,180.3,110.5L222.4,86.2C226.7,83.7,228.6,80.4,228.3,76.9L228.3,76.9L228.3,38.8C228.5,37.4,227.4,36.2,226,36.2C226,36.2,226,36.2,226,36.2Z" fill="rgb(155,217,228)" stroke="none" stroke-width="1"/><path id="ejBedQE7YRU31" d="M165.3,118C157.8,118.1,150.4,116.2,143.8,112.6L106.7,91.2C101.9,88.4,98.6,84.9,97.1,81L96.3,81L96.3,77.2L96.3,39.1C96.3,35.6,99.1,32.8,102.6,32.7L226,32.4C229.5,32.4,232.3,35.2,232.4,38.7L232.4,80.8L231.9,80.8C230.9,84.3,228.4,87.4,224.5,89.6L182.3,114C177.7,116.7,171.6,118,165.3,118ZM103.9,76.5L103.9,76.8C104.1,79.4,106.5,82.2,110.4,84.5L147.5,105.9C156.6,111.1,170.7,111.8,178.4,107.3L220.5,83C222.5,81.9,224.7,80,224.5,77.3L224.2,73.2L224.5,73.2L224.5,40.1L103.6,40.3L103.9,76.5Z" fill="rgb(0,48,103)" stroke="none" stroke-width="1"/></g><g id="ejBedQE7YRU32" transform="matrix(1 0 0 1 72.951 40.849)"><path id="ejBedQE7YRU33" d="M153,32.4L96.2,32.5L96.2,110.1C100.1,109.8,104,108.7,107.4,106.9L149.5,82.6C153.8,80.1,155.7,76.8,155.4,73.3L155.4,73.3L155.4,35C155.6,33.6,154.4,32.4,153,32.4C153,32.4,153,32.4,153,32.4Z" fill="rgb(0,48,103)" stroke="none" stroke-width="1"/></g><g id="ejBedQE7YRU34"><path id="ejBedQE7YRU35" d="M222.6,82.7L180.4,107C171.5,112.1,155.9,111.5,145.7,105.6L108.6,84.2C98.3,78.2,97.1,69.2,106,64L148.1,39.7C157,34.6,172.6,35.2,182.8,41.1L219.9,62.5C230.4,68.5,231.5,77.5,222.6,82.7Z" fill="rgb(255,255,255)" stroke="none" stroke-width="1"/><path id="ejBedQE7YRU36" d="M165.3,114.3C157.8,114.4,150.4,112.5,143.8,108.9L106.7,87.5C100.1,83.7,96.3,78.3,96.3,72.9C96.3,68.1,99.1,63.8,104.2,60.9L146.3,36.6C156.4,30.8,173.3,31.4,184.8,38L222,59.3C228.6,63.1,232.4,68.4,232.4,73.9C232.4,78.7,229.6,83,224.5,85.9L182.4,110.2C177.7,113,171.6,114.3,165.3,114.3ZM163.2,40.1C158.2,40.1,153.5,41.1,150.1,43.1L108,67.3C106.1,68.4,103.9,70.2,103.9,72.7C103.9,75.4,106.4,78.4,110.5,80.7L147.6,102.1C156.7,107.3,170.8,108,178.5,103.5L220.6,79.2C222.5,78.1,224.7,76.3,224.7,73.8C224.7,71.2,222.2,68.1,218.1,65.8L181,44.5C175.6,41.5,169.4,40,163.2,40.1L163.2,40.1Z" fill="rgb(0,48,103)" stroke="none" stroke-width="1"/></g><g id="ejBedQE7YRU37" transform="matrix(1 0 0 1 49.624 75.091)"><rect id="ejBedQE7YRU38" width="7.6" height="40.4" rx="0" ry="0" transform="matrix(1 0 0 1 96.2 32.4)" fill="rgb(0,48,103)" stroke="none" stroke-width="1"/></g><g id="ejBedQE7YRU39" transform="matrix(1 0 0 1 114.92 64.843)"><rect id="ejBedQE7YRU40" width="5.9" height="19.9" rx="0" ry="0" transform="matrix(1 0 0 1 96.2 32.4)" fill="rgb(155,217,228)" stroke="none" stroke-width="1"/></g></g><g id="ejBedQE7YRU41_to" transform="translate(277.805545,392.770825)"><g id="ejBedQE7YRU41_tr" transform="rotate(0)"><g id="ejBedQE7YRU41_ts" transform="scale(1,1)"><g id="ejBedQE7YRU41" transform="translate(-389.383545,1860.279175)"><g id="ejBedQE7YRU42" transform="matrix(1 0 0 1 143.592 494.036)"><g id="ejBedQE7YRU43" transform="matrix(1 0 0 1 7.28 4.84)"><path id="ejBedQE7YRU44" d="M184.3,-2326.3C301.6,-2333.7,439.1,-2425,491.4,-2530.2C517.5,-2582.8,517.4,-2629,496.1,-2661.1L496.1,-2661.1L496.1,-2661.1L471.5,-2698L464,-2690.5C441.1,-2703.5,410.6,-2709.8,373.6,-2707.5C316.8,-2703.9,229.8,-2707.6,175.5,-2672.7C117.7,-2635.4,93.5,-2557.9,66.6,-2503.6C50.1,-2470.5,44.1,-2439.9,47.2,-2413.8L37.4,-2409.7L60.6,-2374.7L60.6,-2374.7C81.5,-2341.4,124.4,-2322.5,184.3,-2326.3ZM121.3,-2507C160.1,-2585.1,262.1,-2652.9,349.2,-2658.4C436.3,-2663.9,475.4,-2605,436.6,-2526.8C417.2,-2487.7,363,-2485.4,321.7,-2458C280.4,-2430.6,252.2,-2378.1,208.7,-2375.4C121.6,-2370,82.5,-2428.9,121.3,-2507Z" fill="rgb(0,48,103)" stroke="none" stroke-width="1"/></g><g id="ejBedQE7YRU45"><path id="ejBedQE7YRU46" d="M372.1,-2382.8C315.8,-2345.4,251.2,-2320.4,191.9,-2316.6C132.7,-2312.9,87.4,-2330.5,64.4,-2366.3L37.4,-2407L49.3,-2412C47,-2438.9,54,-2469.5,69.5,-2500.9C74.9,-2511.9,80.2,-2523.7,85.8,-2536.2C107.6,-2584.9,132.3,-2640.1,178.5,-2670.8C179.1,-2671.2,179.6,-2671.5,180.2,-2671.9C226.2,-2701.5,294.1,-2704,348.7,-2706.1C360,-2706.5,370.8,-2706.9,380.6,-2707.5C415.6,-2709.7,446.5,-2704.2,470.4,-2691.7L479.5,-2700.8L507.3,-2659C530.5,-2624,529,-2575.8,502.9,-2523.3C476.5,-2470,428.4,-2420.2,372.1,-2382.8ZM69.8,-2375.7L69.8,-2375.7L72,-2372.4C92.8,-2339.2,135.2,-2322.8,191.3,-2326.3L191.3,-2326.3C306.9,-2333.6,442.8,-2423.8,494.3,-2527.6C518.8,-2576.9,520.6,-2621.7,499.3,-2653.6L478,-2685.6L472.1,-2679.7L468.9,-2681.5C446.2,-2694.4,415.9,-2700,381.2,-2697.9C371.3,-2697.3,360.5,-2696.9,349,-2696.4C295.6,-2694.4,229.1,-2692,185.4,-2663.8C184.9,-2663.5,184.4,-2663.1,183.9,-2662.8C140,-2633.6,116,-2579.8,94.7,-2532.3C89.1,-2519.7,83.7,-2507.8,78.2,-2496.6C62.8,-2465.5,56.2,-2435.4,59.3,-2409.5L59.7,-2405.9L52,-2402.7L69.8,-2375.7ZM252.2,-2378.8C241.2,-2371.5,229.5,-2366.6,216.3,-2365.7C172.4,-2362.9,138.6,-2375.9,121.1,-2402.3C103.6,-2428.7,104.7,-2464.9,124.3,-2504.3C163.7,-2583.7,267.7,-2652.8,356.2,-2658.3C400.1,-2661.1,433.9,-2648.1,451.4,-2621.7C468.9,-2595.4,467.8,-2559.1,448.2,-2519.7C435.2,-2493.6,408.4,-2483.1,380,-2472C363.6,-2465.6,346.6,-2459,331.6,-2449C316.8,-2439.1,303.4,-2425.7,290.5,-2412.8C277.9,-2400.1,265.5,-2387.7,252.2,-2378.8L252.2,-2378.8ZM326.3,-2457.2C342.2,-2467.7,359.6,-2474.6,376.5,-2481.1C404.3,-2491.9,428.2,-2501.3,439.5,-2524C457.5,-2560.2,458.8,-2593,443.3,-2616.3C427.8,-2639.6,397.1,-2651.1,356.8,-2648.6C271.4,-2643.2,171,-2576.5,132.9,-2499.9C114.9,-2463.7,113.6,-2430.9,129.1,-2407.6C144.6,-2384.3,175.3,-2372.8,215.6,-2375.3C241.2,-2376.9,261.8,-2397.7,283.7,-2419.6C297,-2433.1,310.7,-2446.8,326.3,-2457.2L326.3,-2457.2Z" fill="rgb(0,48,103)" stroke="none" stroke-width="1"/></g></g><g id="ejBedQE7YRU47" transform="matrix(1 0 0 1 128.998 454.953)"><g id="ejBedQE7YRU48" transform="matrix(1 0 0 1 4.919 4.852)"><path id="ejBedQE7YRU49" d="M175.3,-2326.3C292.6,-2333.7,430.1,-2425,482.4,-2530.2C534.7,-2635.4,482,-2714.9,364.6,-2707.5C247.2,-2700.1,109.8,-2608.8,57.5,-2503.6C5.2,-2398.3,58,-2318.9,175.3,-2326.3ZM112.3,-2507C151.1,-2585.1,253.1,-2652.9,340.2,-2658.4C427.3,-2663.9,466.4,-2605,427.6,-2526.8C388.8,-2448.7,286.8,-2380.9,199.7,-2375.4C112.6,-2369.9,73.5,-2428.9,112.3,-2507Z" fill="rgb(155,217,228)" stroke="none" stroke-width="1"/></g><g id="ejBedQE7YRU50"><path id="ejBedQE7YRU51" d="M360.7,-2382.8C304.4,-2345.4,239.8,-2320.4,180.5,-2316.6L180.5,-2316.6C122,-2312.9,76.9,-2330.2,53.7,-2365.2C30.5,-2400.2,32,-2448.4,58.1,-2500.9C111,-2607.4,250.5,-2700.1,369.2,-2707.5C427.7,-2711.2,472.8,-2693.9,496,-2658.9C519.2,-2623.9,517.7,-2575.7,491.6,-2523.2C465.2,-2470,417.1,-2420.2,360.7,-2382.8ZM194.3,-2633.4C139.4,-2597,92.6,-2548.5,66.8,-2496.6C42.3,-2447.3,40.5,-2402.5,61.8,-2370.5C83.1,-2338.5,125,-2322.8,179.9,-2326.2L179.9,-2326.2C295.5,-2333.4,431.4,-2423.7,482.9,-2527.5C507.4,-2576.8,509.2,-2621.6,487.9,-2653.6C466.6,-2685.6,424.7,-2701.3,369.8,-2697.9C312,-2694.2,249.2,-2669.8,194.3,-2633.4ZM339.3,-2415.1C297.3,-2387.2,249.2,-2368.5,204.9,-2365.8C161,-2363,127.2,-2376,109.7,-2402.4C92.2,-2428.8,93.3,-2465,112.9,-2504.4L112.9,-2504.4C152.3,-2583.8,256.4,-2652.9,344.8,-2658.4C388.7,-2661.2,422.5,-2648.2,440,-2621.8C457.5,-2595.4,456.4,-2559.2,436.8,-2519.8C417.1,-2480.1,381.3,-2443,339.3,-2415.1ZM121.6,-2500C103.6,-2463.8,102.3,-2431,117.8,-2407.7C133.3,-2384.4,164,-2372.9,204.4,-2375.4C289.8,-2380.8,390.2,-2447.5,428.3,-2524.1C446.3,-2560.3,447.6,-2593.1,432.1,-2616.4C416.6,-2639.7,385.9,-2651.2,345.6,-2648.7C260,-2643.3,159.6,-2576.6,121.6,-2500L121.6,-2500Z" fill="rgb(0,48,103)" stroke="none" stroke-width="1"/></g></g><g id="ejBedQE7YRU52" transform="matrix(1 0 0 1 351.218 822.413)"><g id="ejBedQE7YRU53"><rect id="ejBedQE7YRU54" width="7.5" height="46.2" rx="0" ry="0" transform="matrix(0.833 -0.5533 0.5533 0.833 37.231075 -2703.868873)" fill="rgb(155,217,228)" stroke="none" stroke-width="1"/></g></g><g id="ejBedQE7YRU55" transform="matrix(1 0 0 1 590.123 603.908)"><g id="ejBedQE7YRU56"><rect id="ejBedQE7YRU57" width="7.5" height="46.2" rx="0" ry="0" transform="matrix(0.833 -0.5533 0.5533 0.833 37.231075 -2703.869873)" fill="rgb(155,217,228)" stroke="none" stroke-width="1"/></g></g><g id="ejBedQE7YRU58" transform="matrix(1 0 0 1 556.446 667.904)"><g id="ejBedQE7YRU59"><rect id="ejBedQE7YRU60" width="7.5" height="46.2" rx="0" ry="0" transform="matrix(0.833 -0.5533 0.5533 0.833 37.241075 -2703.870873)" fill="rgb(155,217,228)" stroke="none" stroke-width="1"/></g></g><g id="ejBedQE7YRU61" transform="matrix(1 0 0 1 223.388 629.944)"><g id="ejBedQE7YRU62"><rect id="ejBedQE7YRU63" width="7.5" height="46.2" rx="0" ry="0" transform="matrix(0.833 -0.5533 0.5533 0.833 37.231075 -2703.869873)" fill="rgb(155,217,228)" stroke="none" stroke-width="1"/></g></g><g id="ejBedQE7YRU64" transform="matrix(1 0 0 1 390.695 514.115)"><g id="ejBedQE7YRU65"><rect id="ejBedQE7YRU66" width="7.5" height="46.2" rx="0" ry="0" transform="matrix(0.833 -0.5533 0.5533 0.833 37.231075 -2703.869873)" fill="rgb(155,217,228)" stroke="none" stroke-width="1"/></g></g><g id="ejBedQE7YRU67" transform="matrix(1 0 0 1 74.244 835.32)"><g id="ejBedQE7YRU68" transform="matrix(1 0 0 1 1.475 0)"><g id="ejBedQE7YRU69" transform="matrix(1 0 0 1 4.856 4.849)"><path id="ejBedQE7YRU70" d="M39,-2348.2C37.5,-2348.9,36.9,-2350.7,37.6,-2352.2C37.6,-2352.2,37.6,-2352.2,37.6,-2352.2L214.2,-2704.3C214.9,-2705.1,215.9,-2705.6,217,-2705.8L251.4,-2708C254.6,-2708.2,258.9,-2705.8,261,-2702.7L279,-2675.6C279.8,-2674.6,280.1,-2673.3,280,-2672L103.4,-2319.9C102.7,-2318.4,100.9,-2317.8,99.4,-2318.6L39,-2348.2Z" fill="rgb(255,255,255)" stroke="none" stroke-width="1"/></g><g id="ejBedQE7YRU71"><path id="ejBedQE7YRU72" d="M109.9,-2309.8C107.6,-2308.2,104.6,-2308,102.1,-2309.3L41.7,-2339C37.8,-2340.9,36.2,-2345.6,38.1,-2349.5C38.1,-2349.5,38.1,-2349.5,38.1,-2349.5L215,-2702.3L215.5,-2702.8C217.1,-2704.4,219.2,-2705.5,221.4,-2705.8L255.8,-2708C260.7,-2708.3,266.7,-2705.1,269.8,-2700.6L287.8,-2673.5C289.3,-2671.4,289.9,-2668.9,289.5,-2666.4L289.1,-2665.1L112.5,-2313C111.9,-2311.6,111,-2310.6,109.9,-2309.8ZM47.7,-2346.8L104.7,-2318.8L279.9,-2668.1L261.8,-2695.1C260.5,-2697,257.8,-2698.3,256.5,-2698.2L222.9,-2696.1L47.7,-2346.8Z" fill="rgb(0,48,103)" stroke="none" stroke-width="1"/></g></g><g id="ejBedQE7YRU73" transform="matrix(1 0 0 1 0 354.84)"><g id="ejBedQE7YRU74" transform="matrix(1 0 0 1 4.849 4.84)"><path id="ejBedQE7YRU75" d="M66.1,-2667.4L100.4,-2669.6C103.6,-2669.8,104.6,-2672.5,102.5,-2675.6L84.5,-2702.7C82.4,-2705.8,78.1,-2708.2,74.9,-2708L40.6,-2705.8C37.4,-2705.6,36.4,-2702.9,38.5,-2699.8L56.5,-2672.7C58.5,-2669.5,62.8,-2667.2,66.1,-2667.4Z" fill="rgb(155,217,228)" stroke="none" stroke-width="1"/></g><g id="ejBedQE7YRU76"><path id="ejBedQE7YRU77" d="M110,-2661.3C108.7,-2660.5,107.2,-2660,105.6,-2659.9L71.2,-2657.7C66.3,-2657.4,60.3,-2660.6,57.2,-2665.1L39.2,-2692.3C37.1,-2695.4,36.7,-2698.8,38.1,-2701.5C39.5,-2704.1,42.1,-2705.8,45.1,-2705.8L79.5,-2707.9C84.4,-2708.2,90.4,-2705,93.5,-2700.5L111.5,-2673.4C113.6,-2670.3,114,-2666.9,112.6,-2664.2C112,-2663,111.1,-2662,110,-2661.3ZM70.6,-2667.4L102.4,-2669.4L85.3,-2695.2C84.1,-2696.9,82.1,-2698.1,80,-2698.3L48.2,-2696.3L65.3,-2670.5C66.6,-2668.6,69.4,-2667.3,70.6,-2667.4L70.6,-2667.4Z" fill="rgb(0,48,103)" stroke="none" stroke-width="1"/></g></g><g id="ejBedQE7YRU78" transform="matrix(1 0 0 1 58.083 18.901)"><g id="ejBedQE7YRU79"><path id="ejBedQE7YRU80" d="M215,-2708L227.2,-2689.6L49.3,-2334.8L37.3,-2352.8L215,-2708Z" fill="rgb(0,48,103)" stroke="none" stroke-width="1"/></g></g></g><g id="ejBedQE7YRU81" transform="matrix(1 0 0 1 187.031 865.14)"><g id="ejBedQE7YRU82"><rect id="ejBedQE7YRU83" width="204.8" height="7.4" rx="0" ry="0" transform="matrix(0.4483 -0.8939 0.8939 0.4483 37.369818 -2525.039853)" fill="rgb(0,48,103)" stroke="none" stroke-width="1"/></g></g><g id="ejBedQE7YRU84" transform="matrix(1 0 0 1 139.694 1083.77)"><g id="ejBedQE7YRU85"><rect id="ejBedQE7YRU86" width="67.8" height="7.4" rx="0" ry="0" transform="matrix(0.448 -0.894 0.894 0.448 37.419407 -2647.264216)" fill="rgb(0,48,103)" stroke="none" stroke-width="1"/></g></g><g id="ejBedQE7YRU87" transform="matrix(1 0 0 1 264.969 692.654)"><g id="ejBedQE7YRU88"><path id="ejBedQE7YRU89" d="M184.3,-2674.4C104.9,-2621.7,38.1,-2639.1,37.4,-2639.3L39.4,-2646.5C40.2,-2646.3,124.1,-2624.6,214.9,-2708L219.9,-2702.5C208.8,-2692.2,196.9,-2682.8,184.3,-2674.4Z" fill="rgb(155,217,228)" stroke="none" stroke-width="1"/></g></g><g id="ejBedQE7YRU90" transform="matrix(1 0 0 1 250.426 723.552)"><g id="ejBedQE7YRU91"><path id="ejBedQE7YRU92" d="M119.5,-2688.6C67.5,-2678.1,38.6,-2701.2,37.4,-2702.2L42.1,-2708C42.4,-2707.8,69.7,-2686.2,118,-2695.9L119.5,-2688.6Z" fill="rgb(155,217,228)" stroke="none" stroke-width="1"/></g></g><g id="ejBedQE7YRU93" transform="matrix(1 0 0 1 467.253 562.99)"><g id="ejBedQE7YRU94"><path id="ejBedQE7YRU95" d="M90.1,-2689.3C75,-2697.4,57.3,-2701.1,37.6,-2700.4L37.3,-2707.9C58.3,-2708.7,77.3,-2704.6,93.6,-2695.9L90.1,-2689.3Z" fill="rgb(155,217,228)" stroke="none" stroke-width="1"/></g></g><g id="ejBedQE7YRU96" transform="matrix(1 0 0 1 313.77 862.468)"><g id="ejBedQE7YRU97"><rect id="ejBedQE7YRU98" width="7.5" height="13.9" rx="0" ry="0" transform="matrix(0.833 -0.5533 0.5533 0.833 37.261285 -2703.877403)" fill="rgb(155,217,228)" stroke="none" stroke-width="1"/></g></g></g></g></g></g></svg>