<?xml version="1.0" encoding="utf-8"?>
<!-- Generator: Adobe Illustrator 25.4.1, SVG Export Plug-In . SVG Version: 6.00 Build 0)  -->
<svg version="1.1" id="Layer_1" xmlns="http://www.w3.org/2000/svg" xmlns:xlink="http://www.w3.org/1999/xlink" x="0px" y="0px"
	 viewBox="0 0 436 149.7" style="enable-background:new 0 0 436 149.7;" xml:space="preserve">
<style type="text/css">
	.st0{fill:#FFFFFF;}
	.st1{fill:#727272;}
</style>
<g transform="translate(-1427.915 -165.596)">
	<g transform="translate(1725.328 165.596)">
		<path class="st0" d="M0,78.5c0-9.8,6.1-18,11.7-23.4c4.9-4.5,10.5-8.2,16.5-11.1C18,38.2,12.1,31.5,12.1,22.8
			C12.1,12.1,25.8,0,37.7,0c13.7,0,24.1,9.8,23.9,21.3c-0.4,9.1-9.8,16.5-16.5,20c10.8,6.8,20.3,15.4,28,25.6
			c4.7-5.9,8.6-12.3,11.7-19.1c0.4-2.2-1.1-3.9-3.7-3.9H79c-0.7-0.1-1.1-0.6-1.1-1.3v-4.8c0-0.6,0.4-1.1,1.3-1.1
			c1.3,0,8.7,0.4,14.3,0.4c5.2,0,13.7-0.4,14.7-0.4s1.3,0.6,1.3,1.5v4.3c0,0.7-0.5,1.3-1.2,1.3l0,0h-0.1H106
			c-3.1-0.3-6.2,0.5-8.9,2.2c-1.5,1.1-16.9,22.1-19.7,26.5c2.2,2.4,8.2,9.3,10.2,11.1c3.9,3.7,10.2,9.8,16.7,9.8
			c9.1,0,15.2-8.9,16.1-10s1.3-1.5,1.7-1.1l2.6,2c0.7,0.2,0.4,0.6,0.2,1.3c-2.4,4.6-10.4,17.4-27.1,17.4
			c-16.1,0-25.4-13.7-30.4-19.1C60.7,90,49.6,103,31,103C16.3,102.8,0,94.4,0,78.5z M63.3,78.1C56.6,68.8,44.9,54.2,33.4,48
			c-11.1,5.6-19.7,14.7-19.3,26c0.2,11.3,12.1,18.4,22.3,18.4C50.1,92.4,59.4,82.4,63.3,78.1L63.3,78.1z M25.6,23
			c0,6.1,8,12.1,14.1,15.8c5.2-4.3,9.3-7.2,9.3-19.5c0-5.4-4.8-12.8-11.3-12.8C31.5,6.5,25.6,12.4,25.6,23z"/>
	</g>
	<g transform="translate(1429.743 264.924)">
		<path class="st0" d="M7.7,42.5c-9.9-9.4-10.3-25-1-34.9l0,0C6.9,7.4,7.1,7.2,7.3,7C11.8,3,17.7,0.5,27,0.5c3,0,6,0.2,9,0.6
			c2.4,0.3,4.4,0.9,6.2,1.1c0.7,0.1,0.9,0.4,0.9,0.7c0,0.5-0.2,1.2-0.3,3.4c-0.1,2.1-0.1,5.5-0.2,6.7c-0.1,0.9-0.2,1.4-0.7,1.4
			s-0.6-0.5-0.6-1.4c-0.1-2.1-1-4.2-2.4-5.7C36.8,5.2,32,3.6,26.2,3.6c-4.2-0.3-8.4,1-11.7,3.8C10,11.6,8.8,17.5,8.8,23.5
			c0,14.8,11.3,22.2,19.6,22.2c5.5,0,8.9-0.6,11.4-3.5c1-1.2,1.7-2.6,2.1-4.1c0.2-1,0.3-1.2,0.8-1.2c0.4,0,0.6,0.4,0.6,0.9
			c-0.3,2.8-0.7,5.6-1.4,8.3c-0.1,0.9-0.8,1.6-1.6,1.8c-3.6,1.1-7.4,1.5-11.2,1.4C20.6,49.3,13.4,47.5,7.7,42.5z"/>
		<path class="st0" d="M56.6,19.4c0-9.5,0-11.2-0.1-13.2c-0.1-2.1-0.6-3.1-2.7-3.6c-0.8-0.1-1.6-0.2-2.4-0.2c-0.7,0-1.1-0.1-1.1-0.6
			s0.4-0.6,1.4-0.6c3.3,0,7.2,0.2,8.5,0.2c2.1,0,6.8-0.2,8.8-0.2c4-0.3,8,0.7,11.5,2.7c2.7,2,4.2,5.2,4.2,8.5c0,4.6-1.9,8.8-8.2,14
			c5.5,7,9.8,12.5,13.5,16.4c1.8,2.2,4.2,3.7,7,4.2c0.6,0.1,1.2,0.2,1.7,0.2s0.7,0.2,0.7,0.5c0,0.5-0.4,0.6-1.2,0.6h-5.9
			c-2.3,0.2-4.6-0.2-6.7-1.2c-2.7-1.4-5-4.4-8.5-9.2c-2.5-3.4-5.4-7.7-6.2-8.6c-0.3-0.3-0.7-0.5-1.1-0.4L64.5,29
			c-0.3,0-0.5,0.1-0.5,0.5v0.9c0,5.8,0,10.7,0.3,13.3c0.2,1.8,0.6,3.2,2.4,3.4c1,0.1,2,0.2,3,0.2c0.5,0,0.7,0.2,0.7,0.5
			c0,0.4-0.4,0.6-1.2,0.6c-3.6,0-8.2-0.2-9.2-0.2c-1.2,0-5.1,0.2-7.6,0.2c-0.8,0-1.2-0.2-1.2-0.6c0-0.3,0.2-0.5,1-0.5
			s1.5-0.1,2.2-0.2c1.2-0.2,1.6-1.6,1.8-3.4c0.3-2.6,0.3-7.5,0.3-13.3L56.6,19.4z M64,24.4c0,0.7,0.1,0.9,0.6,1.1
			c1.5,0.4,3.1,0.6,4.7,0.6c1.6,0.2,3.1-0.2,4.4-1.1c1.9-1.4,3.7-4.2,3.7-9.3c0-8.8-5.9-11.4-9.5-11.4c-1.1-0.1-2.2,0-3.3,0.2
			C64.1,4.7,64,4.9,64,5.4V24.4z"/>
		<path class="st0" d="M106.1,32.2c-0.3,0-0.4,0.1-0.6,0.5l-3.4,8.9c-0.5,1.2-0.8,2.5-0.9,3.8c0,1.1,0.6,1.9,2.5,1.9h0.9
			c0.7,0,0.9,0.1,0.9,0.5c0,0.5-0.4,0.6-1.1,0.6c-2,0-4.7-0.2-6.6-0.2c-0.7,0-4.1,0.2-7.4,0.2c-0.8,0-1.2-0.1-1.2-0.6
			c0-0.4,0.2-0.5,0.7-0.5c0.6,0,1.3,0,1.9-0.1c2.9-0.4,4.1-2.5,5.3-5.6l15.6-39.1c0.7-1.8,1.1-2.5,1.7-2.5s0.9,0.6,1.6,2
			c1.5,3.4,11.5,28.8,15.4,38.3c2.4,5.6,4.2,6.5,5.5,6.8c0.9,0.2,1.7,0.3,2.6,0.2c0.5,0,0.8,0.1,0.8,0.5c0,0.5-0.6,0.6-2.9,0.6
			c-2.2,0-6.8,0-11.8-0.1c-1.1-0.1-1.9-0.1-1.9-0.5s0.2-0.5,0.9-0.6c0.5-0.2,0.8-0.8,0.6-1.3l0,0c0,0,0-0.1-0.1-0.1l-5-13.2
			c-0.1-0.3-0.3-0.5-0.6-0.4L106.1,32.2z M118.8,29.1c0.3,0,0.4-0.2,0.3-0.4l-5.6-15.4c-0.1-0.2-0.1-0.6-0.3-0.6s-0.3,0.3-0.4,0.6
			l-5.7,15.3c-0.1,0.2,0,0.4,0.2,0.4L118.8,29.1L118.8,29.1z"/>
		<path class="st0" d="M138.9,7.5c-0.3-1.7-1.1-3.2-2.3-4.4c-0.8-0.4-1.6-0.6-2.5-0.6c-0.6,0-1-0.1-1-0.6c0-0.4,0.5-0.6,1.4-0.6
			c3.2,0,6.7,0.2,7.2,0.2s3.3-0.2,6.9-0.2c0.9,0,1.3,0.2,1.3,0.6c0,0.5-0.5,0.6-1.1,0.6c-0.5,0-1.1,0-1.6,0.2
			c-0.6,0.2-0.7,0.7-0.7,1.4c0.3,1.9,0.8,3.9,1.4,5.7c1.1,4.1,6.9,23,8,26.5h0.2l12.1-32.4c0.6-1.7,1.1-2.2,1.6-2.2
			c0.7,0,1,0.9,1.8,2.9l13,31.3h0.2c1.1-4.2,6.1-20.6,8.3-27.9c0.4-1.2,0.6-2.4,0.6-3.6c0-1-0.6-1.9-3-1.9c-0.6,0-1.1-0.2-1.1-0.6
			s0.5-0.6,1.4-0.6c3.3,0,5.9,0.2,6.5,0.2c0.4,0,3.1-0.2,5.2-0.2c0.7,0,1.1,0.1,1.1,0.5s-0.3,0.6-0.9,0.6c-0.7,0-1.5,0.1-2.2,0.3
			c-1.5,0.6-2.2,3-3.5,6.6c-2.9,7.8-9.4,27.7-12.5,37c-0.7,2.2-1,2.9-1.8,2.9c-0.6,0-1-0.7-1.9-3.1l-13-31.2h-0.1
			c-1.2,3.2-9.5,25.2-12.1,31c-1.2,2.6-1.5,3.3-2.2,3.3c-0.6,0-0.9-0.7-1.4-2.3L138.9,7.5z"/>
		<path class="st0" d="M219.9,30.4c0,6,0,10.7,0.3,13.3c0.2,1.8,0.6,3.2,2.4,3.4c1,0.1,2.1,0.2,3.1,0.2c0.8,0,1.1,0.2,1.1,0.5
			c0,0.4-0.4,0.6-1.4,0.6c-3.9,0-7.8-0.2-9.5-0.2s-5.5,0.2-7.9,0.2c-0.9,0-1.3-0.1-1.3-0.6c0-0.3,0.2-0.5,0.9-0.5
			c0.8,0,1.5-0.1,2.2-0.2c1.2-0.2,1.6-1.6,1.8-3.4c0.3-2.6,0.3-7.3,0.3-13.3v-11c0-9.5,0-11.2-0.1-13.2c-0.1-2.1-0.6-3.1-2.7-3.6
			c-0.8-0.1-1.6-0.2-2.4-0.2c-0.6,0-1.1-0.1-1.1-0.5c0-0.5,0.5-0.6,1.4-0.6c1.6,0,3.4,0.1,5,0.1c1.6,0.1,3,0.1,3.9,0.1
			c2.4,0,15,0,16.4-0.1c0.9,0,1.7-0.1,2.6-0.2c0.4-0.1,0.7-0.4,1-0.4s0.5,0.3,0.4,0.6l0,0c0,0.4-0.3,1.2-0.5,2.8
			c-0.1,0.6-0.2,4.3-0.3,5c-0.1,0.5-0.2,0.9-0.6,0.9s-0.6-0.3-0.6-1c0-0.8-0.1-1.6-0.4-2.4c-0.9-1.3-2.5-2-4.1-1.9l-9.6-0.2
			c-0.4,0-0.6,0.2-0.6,0.9v15.6c0,0.4,0.1,0.6,0.4,0.6l8-0.1c1.1,0,1.9,0,2.8-0.1c1,0.1,2-0.3,2.7-1.1c0.3-0.4,0.4-0.6,0.8-0.6
			c0.2,0,0.4,0.2,0.4,0.6s-0.3,1.9-0.5,3.9c-0.1,1.2-0.3,4.1-0.3,4.5c0,0.6,0,1.2-0.6,1.2c-0.4,0-0.5-0.4-0.5-0.9
			c0-0.7-0.2-1.3-0.4-1.9c-0.5-1.3-1.8-2.2-3.2-2.2c-1.6-0.2-8.2-0.2-9.2-0.2c-0.3,0-0.4,0.1-0.4,0.6L219.9,30.4z"/>
		<path class="st0" d="M244,24.9c0-10.7,7-24.4,25.7-24.4c15.5,0,25.2,9,25.2,23.3s-10,25.5-25.8,25.5C251.2,49.3,244,35.9,244,24.9
			z M286.2,26.1c0-14-8-22.6-18.3-22.6c-7.2,0-15.3,4-15.3,19.5c0,13,7.2,23.2,19.1,23.2C276.1,46.2,286.2,44.1,286.2,26.1
			L286.2,26.1z"/>
		<path class="st0" d="M307.9,19.4c0-9.5,0-11.2-0.1-13.2c-0.1-2.1-0.6-3.1-2.7-3.6c-0.8-0.1-1.6-0.2-2.4-0.2
			c-0.7,0-1.1-0.1-1.1-0.6s0.4-0.6,1.4-0.6c3.3,0,7.2,0.2,8.5,0.2c2.1,0,6.9-0.2,8.8-0.2c4-0.3,8,0.7,11.5,2.7
			c2.7,2,4.2,5.2,4.2,8.5c0,4.6-1.9,8.8-8.2,14c5.5,7,9.8,12.5,13.5,16.4c1.8,2.2,4.2,3.7,7,4.2c0.6,0.1,1.2,0.2,1.7,0.2
			s0.7,0.2,0.7,0.5c0,0.5-0.4,0.6-1.2,0.6h-5.9c-2.3,0.2-4.6-0.2-6.7-1.2c-2.7-1.4-5-4.4-8.5-9.2c-2.5-3.4-5.4-7.7-6.2-8.6
			c-0.3-0.3-0.7-0.5-1.1-0.4l-5.4-0.1c-0.3,0-0.5,0.1-0.5,0.5v0.9c0,5.8,0,10.7,0.3,13.3c0.2,1.8,0.6,3.2,2.4,3.4c1,0.1,2,0.2,3,0.2
			c0.5,0,0.8,0.2,0.8,0.5c0,0.4-0.4,0.6-1.2,0.6c-3.6,0-8.2-0.2-9.2-0.2c-1.2,0-5.1,0.2-7.6,0.2c-0.8,0-1.2-0.2-1.2-0.6
			c0-0.3,0.2-0.5,1-0.5s1.5-0.1,2.2-0.2c1.2-0.2,1.6-1.6,1.8-3.4c0.3-2.6,0.3-7.5,0.3-13.3L307.9,19.4z M315.2,24.4
			c0,0.7,0.1,0.9,0.6,1.1c1.5,0.4,3.1,0.6,4.7,0.6c1.6,0.2,3.1-0.2,4.4-1.1c1.9-1.4,3.7-4.2,3.7-9.3c0-8.8-5.9-11.4-9.5-11.4
			c-1.1-0.1-2.2,0-3.3,0.2c-0.4,0.1-0.6,0.4-0.6,0.9L315.2,24.4z"/>
		<path class="st0" d="M354.9,19.4c0-9.5,0-11.2-0.1-13.2c-0.1-2.1-0.6-3.1-2.7-3.6c-0.8-0.1-1.6-0.2-2.4-0.2
			c-0.7,0-1.1-0.1-1.1-0.6s0.4-0.6,1.4-0.6c3.3,0,7.2,0.2,9,0.2c1.9,0,5.9-0.2,9.6-0.2c7.8,0,18.2,0,25,7.1c4,4.3,6.2,10,6,15.8
			c0.1,6.5-2.3,12.7-6.8,17.4c-2.9,2.9-9.3,7.3-20.9,7.3c-2.2,0-4.8-0.2-7.2-0.4s-4.5-0.4-6.1-0.4c-0.7,0-2.1,0-3.6,0.1
			c-1.4,0-3,0.1-4.3,0.1c-0.8,0-1.2-0.2-1.2-0.6c0-0.3,0.2-0.5,1-0.5s1.5-0.1,2.2-0.2c1.2-0.2,1.6-1.6,1.8-3.4
			c0.3-2.6,0.3-7.5,0.3-13.3L354.9,19.4z M362.7,26.3c0,6.6,0.1,11.4,0.1,12.6c-0.1,1.6,0.2,3.2,0.7,4.7c0.8,1.2,3.2,2.5,8.2,2.5
			c6.4,0,10.6-1.2,14.3-4.5c4-3.4,5.2-9.1,5.2-15.5c0.2-5.8-1.9-11.4-6-15.6C380.4,6.2,374,4,367.6,4.3c-1.4,0-2.7,0.1-4.1,0.4
			c-0.5,0.2-0.8,0.7-0.7,1.2c-0.1,2.1-0.1,7.5-0.1,12.5L362.7,26.3z"/>
	</g>
	<g transform="translate(1503.38 188.181)">
		<path class="st1" d="M280.7,48.6c-8.4,6-15,14.1-19.2,23.6h3.3c4.1-8.4,10.2-15.6,17.7-21c2.1-1.6,4.3-3,6.7-4
			c8.6-3.4,13.6,0.3,15.6,4.8c1.6,4,0.6,8.2-3.1,9.7c-1.3,0.5-2.8,0.8-4.2,0.6c-0.5,0-1,0.2-1.3,0.6c-0.3,0.4-0.4,1-0.2,1.4
			c0,0,0.1,0.2,0.2,0.6c1.2,2.7,2.8,5.1,4.8,7.2h5c-0.6-0.3-1.2-0.7-1.8-1.2c-0.6-0.5-1.1-0.9-1.5-1.5c0.4,0,0.9,0,1.4,0
			c3.3,0.7,7.9,0.4,13.4-3.6c11.5-8.2,7.9-36.1-22.7-34.2C264.3,33.4,257,62.2,257,62.2c4.5-14.1,17.1-24,31.8-25.1
			c-5.2,2.2-10,5.6-13.8,9.8c0,0,9.8-6.9,18.2-6.5c-2.6,0.7-5.2,1.7-7.6,3c2.9-0.8,6-1.2,9.1-1c-2.3,0.1-4.6,0.6-6.8,1.6
			C285.4,45.3,282.9,46.8,280.7,48.6z"/>
		<path class="st1" d="M336,35.4c-5.3-13-20-23.1-42.6-20.6c-4.1,0.4-8.1,1.5-12,3.1c-8.1,3.6-15.1,9-20.6,15.9
			c-0.4,0.5-0.8,1-1.2,1.5l-0.1,0.1c-3.4,4.3-6.4,9-8.8,13.9c-3.6,7.3-6.4,15-8.4,22.9h3.1c3-11.6,7.9-22.5,14.7-32.4l0,0
			c8.1-11.4,20.5-18.9,34.3-20.9c12.5-2.1,25.7,2.5,31.9,8.1l0.2-0.1c2.8,2.8,5.1,6.1,6.6,9.7c5.4,13-0.1,28-12.5,34.5
			c-0.8,0.4-1.5,0.8-2.2,1.1h6.2C336.7,64.2,341.5,48.8,336,35.4z"/>
		<path class="st1" d="M147.1,10.3c-0.3,0.4-0.4,0.9-0.3,1.4c0.1,0.5,0.4,0.9,0.9,1.1c6.7,3,10.3,6.8,11.9,10.7
			c3.1,7.6-1.5,16.1-9.2,19.3c-7.6,3.1-18,1.2-26.7-13.2C114.3,12.5,86.3-1.3,66,2.2c-0.7,0.1-1.2,0.6-1.3,1.3
			c-0.1,0.7,0.2,1.3,0.8,1.6c13.4,7.6,33.7,27,40,40.4c-33.4-14-71-14.2-104.5-0.6c-0.8,0.3-1.2,1.2-0.9,2c0.3,0.6,0.9,1,1.6,1
			c8.1-0.6,16.3-0.7,24.4-0.1c26.5,3.4,52.2,11.7,75.8,24.2h10.3C78.9,53.6,45.6,44,12.8,44.4c18.7-3.6,61.6-7.9,99,16.2
			c5.9,3.8,11.6,7.7,17.2,11.6h23.1c-0.6-0.7-0.9-1.2-0.9-1.2c6.8,0,13.5-1.8,19.5-5.1c-13.7,4.9-31-4.5-31-4.5
			c12.5,4.6,19.7-1.4,19.7-1.4c-8.4,2.8-27.1-4-41-18.3c5.2,3.7,10.9,6.7,16.8,8.9c-18.7-8.6-21.5-16.4-30.6-29.8
			C99.5,13.3,88.8,8.7,80.3,6.1c3.2,0.2,6.3,0.8,9.4,1.8c2.1,0.7,4.3,1.6,6.3,2.5c7.5,3.7,13.9,9.3,18.7,16.2
			c16.8,23.7,30,29.2,45.3,23.1c18.2-7.3,9.8-32.5,9.8-32.5c0.3,2.9-0.1,5.9-1,8.6c0-7.6-5.8-14-13.3-14.8
			c7.3-3.1,29.2-9.7,39.7,16.1c0,0-6.7-25.6-30.6-23.5c5.2-1.1,10.6-0.6,15.5,1.5c15.6,6.5,23.1,24.4,16.6,40
			c-1.5,3.6-3.7,7-6.4,9.8l-0.1,0.1l-1.8,2c1.3,1.7-0.4,7.1-0.4,7.1s2.9-4.6,4.6-7.2c0.2-0.2,0.6-0.5,1.1-0.8
			c-0.7,2.1-0.9,4.3-0.7,6.5c17.4-21.1,32.6-17.2,40-13.1c1.3,0.8,2.6,1.7,3.7,2.8c-0.5-0.1-1.1-0.1-1.6-0.1
			c-3.4-0.7-6.8-0.4-10.1,0.7c-10.5,2.1-14.1,10.3-14.9,19.2h20.3c0.2-10.1,3.9-13.3,6.7-14.5c1-0.4,2-0.6,3-0.7c0.4,0,0.8,0,1.2,0
			c0.6,0.1,1.3-0.2,1.6-0.8c0-0.1,0-0.2,0.1-0.3c0.2,0.2,0.3,0.3,0.3,0.3c-0.1-0.2-0.2-0.3-0.3-0.4c0.2-0.5,0.1-1-0.2-1.4
			c-11.4-14.8-27.4-12.4-38.3-7.8c-2.3,1-4.5,2.1-6.7,3.3c5.1-8.9,5.8-19.7,1.9-29.2c-3.4-8.4-10.1-15-18.4-18.5
			c-7.2-3.1-15.4-3.1-22.7,0C154.2,4.1,150.3,6.8,147.1,10.3z M76.4,5c0.1,0,0.2,0,0.2,0l0,0C76.5,5,76.5,5,76.4,5L76.4,5z"/>
	</g>
	<g transform="translate(1429.474 198.17)">
		<path class="st0" d="M18.5,28.8h0.4c2.8-3.1,14.9-15.4,17.3-18.2c2.3-2.7,4.1-4.8,4.1-6.2c0-0.9-0.3-1.5-1.2-1.7
			C38.4,2.5,38,2.4,38,1.9c0-0.6,0.4-0.7,1.3-0.7c1.7,0,6.3,0.2,8.5,0.2c2.6,0,7.1-0.2,9.7-0.2c0.8,0,1.4,0.2,1.4,0.7
			s-0.4,0.7-1.2,0.7c-1.6,0.1-3.3,0.4-4.8,0.9C49.6,5,46.5,7.1,44,9.8c-2.6,2.4-15,14.8-17.9,17.8c3,3.9,19.2,21.3,22.4,24.4
			c3.6,3.5,7.4,7.2,11.8,8.9c1.6,0.7,3.4,1.1,5.1,1.2c0.6,0,1.1,0.2,1.1,0.7c0,0.6-0.4,0.8-2,0.8h-7.2c-2.5,0-4,0-5.7-0.2
			c-4.5-0.4-6.7-2.2-10.3-5.4S21.4,35.7,19.6,33.3l-0.9-1.2h-0.4v7.5c0,7.6,0,14.1,0.2,17.7c0.2,2.3,0.9,4.1,3,4.5
			c1.3,0.2,2.7,0.3,4.1,0.3c0.7,0,1.1,0.2,1.1,0.7c0,0.6-0.7,0.8-1.6,0.8c-4.6,0-9.8-0.2-11.9-0.2c-1.9,0-7.1,0.2-10.4,0.2
			c-1.1,0-1.7-0.2-1.7-0.8c0-0.4,0.3-0.7,1.3-0.7s2-0.1,3-0.3c1.7-0.3,2.1-2.1,2.4-4.5c0.4-3.5,0.4-10,0.4-17.6V25.1
			c0-12.6,0-14.9-0.2-17.5c0-2.8-0.6-4.1-3.4-4.7c-1-0.2-2.1-0.3-3.2-0.3C0.5,2.6,0,2.5,0,1.9s0.6-0.7,1.8-0.7
			c4.4,0,9.6,0.2,11.6,0.2s7.2-0.2,10-0.2c1.2,0,1.7,0.2,1.7,0.7S24.7,2.6,24,2.6c-0.8,0-1.6,0.1-2.3,0.2c-2.2,0.4-2.9,1.8-3.1,4.7
			c-0.2,2.6-0.2,5-0.2,17.5L18.5,28.8z"/>
		<path class="st0" d="M71.9,25.1c0-12.6,0-14.9-0.2-17.5c-0.2-2.8-0.8-4.1-3.6-4.7C67,2.7,66,2.6,64.9,2.7c-0.9,0-1.4-0.2-1.4-0.7
			s0.6-0.7,1.8-0.7c4.4,0,9.6,0.2,11.3,0.2c2.8,0,9.1-0.2,11.7-0.2c5.2,0,10.7,0.5,15.2,3.6c3.5,2.7,5.6,6.9,5.6,11.3
			c0,6.1-2.6,11.7-10.9,18.5c7.4,9.3,13.1,16.6,17.9,21.8c4.6,4.8,8,5.4,9.3,5.6c0.8,0.2,1.5,0.2,2.3,0.2c0.7,0,1,0.2,1,0.7
			c0,0.7-0.6,0.8-1.6,0.8h-7.9c-4.6,0-6.7-0.4-8.9-1.6c-3.6-1.9-6.7-5.8-11.3-12.2c-3.3-4.5-7.1-10.2-8.2-11.4
			c-0.4-0.4-0.9-0.6-1.5-0.6l-7.2-0.2c-0.3-0.1-0.6,0.2-0.7,0.5c0,0.1,0,0.1,0,0.2v1.2c0,7.7,0,14.2,0.4,17.7
			c0.2,2.4,0.7,4.2,3.2,4.5c1.3,0.2,2.7,0.3,4.1,0.3c0.7,0,1,0.2,1,0.7c0,0.6-0.6,0.8-1.7,0.8c-4.8,0-10.9-0.2-12.2-0.2
			c-1.6,0-6.8,0.2-10.1,0.2c-1.1,0-1.7-0.2-1.7-0.8c0-0.4,0.3-0.7,1.3-0.7s2-0.1,3-0.3c1.7-0.3,2.1-2.1,2.4-4.5
			c0.4-3.5,0.4-10,0.4-17.6L71.9,25.1z M81.6,31.7c0,0.9,0.2,1.2,0.7,1.5c2,0.6,4.2,0.9,6.3,0.8c2.1,0.3,4.2-0.2,5.9-1.4
			c2.5-1.8,4.9-5.6,4.9-12.4C99.4,8.4,91.7,5,86.8,5c-1.5-0.1-2.9,0-4.4,0.3c-0.6,0.2-0.7,0.5-0.7,1.2L81.6,31.7z"/>
		<path class="st0" d="M130.4,25.1c0-12.6,0-14.9-0.2-17.5c-0.2-2.8-0.8-4.1-3.6-4.7c-1.1-0.2-2.1-0.3-3.2-0.2
			c-0.9,0-1.4-0.2-1.4-0.7s0.6-0.7,1.8-0.7c4.4,0,9.6,0.2,12.1,0.2c2,0,7.2-0.2,10.2-0.2c1.2,0,1.8,0.2,1.8,0.7s-0.5,0.7-1.3,0.7
			s-1.6,0.1-2.4,0.2c-2.2,0.4-2.9,1.8-3.1,4.7c-0.2,2.6-0.2,5-0.2,17.5v11.6c0,12,2.4,17,6.5,20.3c2.9,2.4,6.6,3.6,10.3,3.4
			c4.2,0.1,8.3-1.5,11.4-4.5c4.5-4.5,4.8-12,4.8-20.5V25.1c0-12.6,0-14.9-0.2-17.5c-0.2-2.8-0.8-4.1-3.6-4.7c-1-0.2-2-0.3-3-0.2
			c-0.9,0-1.4-0.2-1.4-0.7s0.6-0.7,1.7-0.7c4.2,0,9.4,0.2,9.5,0.2c1,0,6.2-0.2,9.4-0.2c1.2,0,1.7,0.2,1.7,0.7s-0.5,0.7-1.5,0.7
			c-0.8,0-1.6,0.1-2.4,0.2c-2.2,0.4-2.9,1.8-3.1,4.7c-0.2,2.6-0.2,5-0.2,17.5V34c0,9.2-0.9,18.9-7.9,24.9c-4.8,4.1-10.9,6.2-17.2,6
			c-4.4,0-12.3-0.2-18.4-5.7c-4.2-3.8-7.4-9.9-7.4-21.9L130.4,25.1z"/>
		<path class="st0" d="M199.9,62.7c-1.3-0.6-1.6-1-1.6-2.8c0-4.5,0.3-9.5,0.4-10.8c0.1-1.2,0.3-2.1,1-2.1s0.8,0.7,0.8,1.4
			c0.1,1.4,0.3,2.8,0.7,4.2c1.4,5.3,6.4,8.8,11.8,8.4c7.4,0,11.1-5,11.1-9.4c0-4.1-1.2-7.9-8.1-13.2l-3.8-3
			c-9.1-7.1-12.2-12.9-12.2-19.6C200,6.5,207.6,0,219.1,0c3.7,0,7.4,0.4,11,1.4c0.7,0.2,1.2,0.4,1.2,1c0,1.1-0.3,3.5-0.3,9.9
			c0,1.8-0.2,2.5-0.9,2.5c-0.6,0-0.8-0.5-0.8-1.5c-0.2-2-0.9-3.9-2.1-5.5c-2.1-2.8-5.5-4.3-9-4.1c-6.1,0-9.8,3.6-9.8,8.5
			c0,3.8,1.9,6.7,8.8,11.9l2.3,1.7c10,7.5,13.6,13.2,13.6,21.1c0.1,5.8-2.8,11.3-7.8,14.4c-4,2.4-8.5,3.6-13.2,3.4
			C207.8,65,203.7,64.3,199.9,62.7z"/>
		<path class="st0" d="M252.5,25.1c0-12.6,0-14.9-0.2-17.5c-0.2-2.8-0.8-4.1-3.6-4.7c-1.1-0.2-2.1-0.3-3.2-0.2
			c-0.9,0-1.4-0.2-1.4-0.7s0.6-0.7,1.8-0.7c2.2,0,4.6,0.1,6.7,0.1c2.1,0.1,4.1,0.2,5.2,0.2c2.6,0,19.1,0,20.7-0.1
			c1.2-0.1,2.4-0.3,3.6-0.5c0.4-0.1,0.9-0.3,1.3-0.3s0.5,0.3,0.5,0.7c-0.3,1.8-0.5,3.6-0.7,5.4c-0.1,0.8-0.2,4.5-0.4,5.5
			c-0.1,0.4-0.2,0.9-0.8,0.9s-0.7-0.4-0.7-1.2c0-1-0.2-2-0.5-3c-0.6-1.5-1.4-2.5-5.5-3c-1.4-0.2-10.1-0.3-11.7-0.3
			c-0.4,0-0.6,0.2-0.6,0.8v20.9c0,0.6,0.1,0.9,0.6,0.9c1.8,0,11.3,0,13.2-0.2c1.4,0.1,2.8-0.3,4-1.2c0.6-0.7,0.9-1.1,1.3-1.1
			c0.3,0,0.6,0.2,0.6,0.7s-0.3,1.8-0.7,6c-0.1,1.7-0.3,5-0.3,5.5c0,0.7,0,1.6-0.7,1.6c-0.4,0.1-0.7-0.2-0.7-0.5l0,0
			c0-0.1,0-0.1,0-0.2c0-1-0.2-2-0.3-3c-0.4-1.7-1.6-2.9-4.6-3.2c-1.6-0.2-9.8-0.2-11.7-0.2c-0.4,0-0.5,0.3-0.5,0.8v6.5
			c0,2.8-0.1,10.4,0,12.8c0.2,5.7,1.5,6.9,9.9,6.9c2.6,0.2,5.3-0.2,7.8-1c2.2-1,3.1-2.7,3.7-6.1c0.2-0.9,0.3-1.2,0.9-1.2
			c0.7,0,0.7,0.7,0.7,1.5c-0.1,3.1-0.5,6.1-1.1,9.2c-0.6,2.1-1.3,2.1-4.5,2.1c-6.2,0-10.7-0.2-14.3-0.2c-3.6-0.2-6.1-0.2-8.6-0.2
			c-0.9,0-2.7,0-4.7,0.1c-1.9,0-4.1,0.2-5.7,0.2c-1.1,0-1.7-0.2-1.7-0.8c0-0.4,0.3-0.7,1.3-0.7s2-0.1,3-0.3c1.7-0.3,2.1-2.1,2.4-4.5
			c0.4-3.5,0.4-10,0.4-17.6L252.5,25.1z"/>
	</g>
	<rect x="1427.9" y="258.5" class="st0" width="401.7" height="9.2"/>
	<g transform="translate(1826.661 306.188)">
		<path class="st0" d="M1.3,8C-0.3,6.6-0.4,4.1,1,2.5l0,0c0.1-0.1,0.2-0.2,0.2-0.2c0.9-0.8,2.1-1.1,3.3-1.1c0.5,0,1,0,1.5,0.1
			c0.4,0.1,0.7,0.1,1,0.2c0.1,0,0.2,0.1,0.2,0.1s0,0.2,0,0.6s0,0.9,0,1.1c0,0.1,0,0.2-0.1,0.2S6.9,3.4,6.9,3.3
			c0-0.4-0.2-0.7-0.4-0.9C5.9,2,5.2,1.7,4.5,1.8c-0.7-0.1-1.4,0.1-2,0.6C1.8,3,1.5,4,1.6,5C1.5,6.8,2.9,8.4,4.7,8.5l0,0h0.1
			c0.9,0,1.4-0.1,1.8-0.5C6.8,7.8,6.9,7.5,7,7.3c0-0.2,0-0.2,0.1-0.2s0.1,0.1,0.1,0.2c0,0.5-0.1,0.9-0.2,1.3c0,0.1-0.1,0.3-0.3,0.3
			C6.1,9.1,5.5,9.2,4.9,9.1C3.6,9.2,2.3,8.8,1.3,8z"/>
		<path class="st0" d="M8.6,8.2c0-0.4,0.3-0.7,0.7-0.7l0,0c0.4,0,0.7,0.3,0.7,0.6l0,0C10,8.6,9.7,8.9,9.3,9c0,0,0,0-0.1,0
			C8.9,9,8.6,8.7,8.6,8.2C8.6,8.3,8.6,8.3,8.6,8.2L8.6,8.2z"/>
		<path class="st0" d="M11.8,4.3c0-1.5,0-1.8,0-2.1s-0.2-0.5-0.4-0.5c-0.1,0-0.3,0-0.4,0c-0.1,0-0.2,0-0.2-0.1s0.1-0.1,0.2-0.1
			c0.5,0,1.2,0,1.5,0c0.4,0,1.3,0,1.7,0c0.7-0.1,1.4,0.1,1.9,0.6c0.3,0.3,0.5,0.8,0.5,1.2c0,1.4-1.1,2.5-2.5,2.4H14
			c-0.1,0-0.2,0-0.3,0s-0.1,0-0.1-0.1l0,0l0,0c0-0.1,0.1-0.1,0.3-0.1c0.8-0.1,1.4-0.8,1.4-1.6c0-0.6-0.2-1.1-0.6-1.5
			C14.4,2.2,14,2,13.7,2c-0.2,0-0.3,0-0.5,0c-0.1,0-0.1,0.1-0.1,0.2v4c0,0.9,0,1.7,0,2.2c0,0.3,0.1,0.5,0.4,0.5c0.2,0,0.4,0,0.5,0
			S14.2,9,14.2,9s0,0-0.1,0c-0.7,0-1.4,0-1.7,0c-0.2,0-0.9,0-1.3,0c-0.1,0-0.2,0-0.2-0.1s0-0.1,0.2-0.1c0.1,0,0.2,0,0.4,0
			s0.3-0.2,0.3-0.5c0-0.4,0-1.2,0-2.1V4.3z"/>
		<path class="st0" d="M16.4,8.2c0-0.4,0.3-0.7,0.7-0.7l0,0c0.4,0,0.7,0.3,0.7,0.6l0,0c0,0.4-0.3,0.7-0.7,0.8c0,0,0,0-0.1,0
			C16.7,9,16.4,8.7,16.4,8.2L16.4,8.2z"/>
		<path class="st0" d="M20.7,6.5L20.7,6.5L20,7.9c-0.1,0.2-0.1,0.4-0.2,0.6c0,0.2,0.1,0.3,0.4,0.3h0.2c0.1,0,0.2,0,0.2,0.1
			s0,0.1-0.1,0.1c-0.3,0-0.8,0-1.2,0c-0.1,0-0.7,0-1.2,0c-0.1,0-0.2,0-0.2-0.1s0-0.1,0.1-0.1l0,0l0,0c0.1,0,0.2,0,0.3,0
			c0.5-0.1,0.7-0.4,0.9-0.9l2.7-6.3c0.1-0.3,0.2-0.4,0.3-0.4c0.2,0,0.2,0.1,0.3,0.3c0.3,0.6,2,4.7,2.7,6.2c0.4,0.9,0.7,1,0.9,1.1
			c0.1,0,0.3,0,0.4,0s0.1,0,0.1,0.1s0,0.1-0.4,0.1s-1.1,0-2,0c-0.2,0-0.3,0-0.3-0.1s0-0.1,0.1-0.1s0.1-0.1,0.1-0.2l0,0l0,0l-0.8-2
			l-0.1-0.1L20.7,6.5z M23,5.9L23,5.9l-1-2.6V3.2c0,0,0,0.1-0.1,0.1l-1,2.6V6L23,5.9z"/>
		<path class="st0" d="M26.8,8.2c0-0.4,0.3-0.7,0.7-0.7l0,0c0.4,0,0.7,0.3,0.7,0.6l0,0c0,0.4-0.3,0.7-0.7,0.8l0,0
			C27.2,9,26.8,8.7,26.8,8.2C26.8,8.3,26.8,8.3,26.8,8.2L26.8,8.2z"/>
		<path class="st0" d="M30.9,0.2c-0.2,0.7-0.4,1.5-0.4,2.3c0,0.4-0.1,0.6-0.2,0.6s-0.1-0.2-0.2-0.6C30,1.7,29.9,1,29.7,0.2
			C29.7,0,30,0,30.3,0S30.9,0,30.9,0.2z"/>
		<path class="st0" d="M32.8,8.9c-0.2-0.1-0.2-0.1-0.2-0.3c0-0.5,0-1.2,0.1-1.3S32.8,7,32.8,7s0.1,0.1,0.1,0.2c0,0.2,0,0.4,0.1,0.5
			c0.3,0.7,0.9,1.1,1.7,1c0.7,0.1,1.4-0.4,1.4-1.2V7.4c0-0.4-0.1-0.9-1-1.4l-0.6-0.4c-1.2-0.7-1.6-1.4-1.6-2.3c0-1.2,1.2-2,2.6-2
			c0.5,0,1,0.1,1.5,0.2c0.1,0,0.1,0.1,0.1,0.1c0,0.1,0,0.4,0,1.2c0,0.2,0,0.3-0.1,0.3S36.8,3,36.8,2.9c0-0.2-0.1-0.5-0.3-0.7
			c-0.3-0.3-0.7-0.5-1.2-0.5c-0.7,0-1.4,0.4-1.4,1.1c0,0.4,0.2,0.8,1.1,1.3l0.4,0.2c1.4,0.8,1.8,1.5,1.8,2.4c0,0.8-0.4,1.5-1,1.9
			c-0.5,0.3-1.1,0.5-1.7,0.4C33.9,9.2,33.3,9.1,32.8,8.9z"/>
	</g>
</g>
</svg>
