<svg xmlns="http://www.w3.org/2000/svg" width="520.319" height="50.027" viewBox="0 0 520.319 50.027"><path d="M255.6,756.427s-23.848-.8-30.561,5.267.006,5.16-1.787,7.383-9.332,1.192-9.838-4.791,8.307-8.563,14.87-8.62S255.6,756.427,255.6,756.427Z" transform="translate(-89.587 -753.633)" fill="#9bd9e4"/><path d="M275.739,755.467s-22.586-.468-36.268,13.777-6.372,29.614-.093,31.581,9.559-.655,10.308-2.812-.657-4.029,2.717-6.185,6.467,2.249,4.686,6.654-12.37,8.434-21.647,1.78-10.4-20.055-2.437-30.831S255.871,754.9,275.739,755.467Z" transform="translate(-143.638 -753.759)" fill="#9bd9e4"/><path d="M318.921,756.033s-17.618,1.03-32.237,13.025-24.466,16.045-37.766,11.715c-12.09-3.936-12.559-19.305-3.749-23.241s16.024,4.591,12.558,10.589-8.9,1.781-8.059-1.217,3.374-1.781,3.561-3.374-6.654-4.124-9.841,2.9,6.2,13.817,14.714,13.307c15.649-.937,23.767-9.422,33.737-16.212A43.983,43.983,0,0,1,318.921,756.033Z" transform="translate(-231.399 -753.48)" fill="#9bd9e4"/><path d="M290.153,756.172S274.22,755.7,267,760.577s-10.214,8.247-14.9,7.5-4.686-8.059,2.062-10.59S290.153,756.172,290.153,756.172Z" transform="translate(-217.154 -753.526)" fill="#9bd9e4"/><path d="M305.742,756.516S284.563,753.987,281,761.3s-4.311,18.648,3.188,24.178c4.455,3.285,7.31,5.716,3.841,7.215s-9.091-2.342-10.683-13.025-2.062-21.929,7.029-23.148S304.994,754.267,305.742,756.516Z" transform="translate(-274.166 -753.871)" fill="#9bd9e4"/><path d="M296.7,771.7s6.388,19.287-.187,18.929C289.67,790.254,296.7,771.7,296.7,771.7Z" transform="translate(-293.519 -745.624)" fill="#9bd9e4"/><path d="M92.017,756.236s23.859-.484,30.491,5.668-.073,5.156,1.691,7.4,9.316,1.315,9.9-4.66-8.2-8.671-14.756-8.815S92.017,756.236,92.017,756.236Z" transform="translate(300.46 -753.561)" fill="#9bd9e4"/><path d="M53.266,755.436s15.9-1.123,23.311,3.449,10.544,7.821,15.2,6.878,4.35-8.245-2.5-10.495S53.266,755.436,53.266,755.436Z" transform="translate(425.419 -754.31)" fill="#9bd9e4"/><g transform="translate(2.852 0.146)"><path d="M565,754.407c1.192,0,2.155.672,2.155,1.5s-.963,1.5-2.155,1.5H62.583c-1.192,0-2.155-.67-2.155-1.5s.963-1.5,2.155-1.5Z" transform="translate(-60.428 -754.407)" fill="#9bd9e4"/></g></svg>