<svg xmlns="http://www.w3.org/2000/svg" width="519.57" height="50.027" viewBox="0 0 519.57 50.027"><path d="M213.394,756.427s23.848-.8,30.561,5.267-.006,5.16,1.787,7.383,9.332,1.192,9.838-4.791-8.307-8.563-14.87-8.62S213.394,756.427,213.394,756.427Z" transform="translate(140.356 -753.633)" fill="#9bd9e4"/><path d="M227.688,755.467s22.586-.468,36.268,13.777,6.372,29.613.093,31.581-9.559-.655-10.308-2.811.657-4.029-2.717-6.185-6.467,2.249-4.686,6.655,12.37,8.434,21.647,1.78,10.4-20.055,2.437-30.831S247.555,754.9,227.688,755.467Z" transform="translate(159.914 -753.759)" fill="#9bd9e4"/><path d="M239.126,756.033s17.618,1.03,32.237,13.025,24.466,16.045,37.766,11.715c12.09-3.936,12.559-19.3,3.749-23.241s-16.024,4.591-12.558,10.589,8.9,1.781,8.059-1.217-3.374-1.781-3.561-3.374,6.654-4.123,9.841,2.9-6.2,13.817-14.714,13.307c-15.649-.937-23.767-9.422-33.737-16.212A43.983,43.983,0,0,0,239.126,756.033Z" transform="translate(192.921 -753.48)" fill="#9bd9e4"/><path d="M248.812,756.172s15.933-.468,23.149,4.405,10.214,8.247,14.9,7.5,4.686-8.059-2.062-10.59S248.812,756.172,248.812,756.172Z" transform="translate(197.759 -753.526)" fill="#9bd9e4"/><path d="M276.438,756.516s21.179-2.529,24.742,4.78,4.311,18.648-3.188,24.178c-4.455,3.285-7.31,5.716-3.841,7.215s9.091-2.342,10.683-13.025,2.062-21.929-7.029-23.148S277.186,754.267,276.438,756.516Z" transform="translate(211.555 -753.871)" fill="#9bd9e4"/><path d="M296.3,771.7s-6.388,19.287.187,18.929C303.333,790.254,296.3,771.7,296.3,771.7Z" transform="translate(220.086 -745.625)" fill="#9bd9e4"/><path d="M134.127,756.236s-23.859-.484-30.491,5.668.073,5.156-1.691,7.4-9.316,1.315-9.9-4.66,8.2-8.671,14.756-8.815S134.127,756.236,134.127,756.236Z" transform="translate(-6.418 -753.561)" fill="#9bd9e4"/><path d="M94.9,755.436s-15.9-1.123-23.311,3.449-10.544,7.821-15.2,6.878-4.35-8.245,2.5-10.494S94.9,755.436,94.9,755.436Z" transform="translate(-53.266 -754.31)" fill="#9bd9e4"/><g transform="translate(10.739 0.146)"><path d="M62.58,754.407c-1.19,0-2.152.672-2.152,1.5s.962,1.5,2.152,1.5H564.256c1.19,0,2.152-.67,2.152-1.5s-.962-1.5-2.152-1.5Z" transform="translate(-60.428 -754.407)" fill="#9bd9e4"/></g></svg>