<svg id="elw63VBkoyu1" xmlns="http://www.w3.org/2000/svg" xmlns:xlink="http://www.w3.org/1999/xlink" viewBox="0 0 592.7 666.3" shape-rendering="geometricPrecision" text-rendering="geometricPrecision"><style><![CDATA[#elw63VBkoyu2_to {animation: elw63VBkoyu2_to__to 5000ms linear infinite alternate forwards}@keyframes elw63VBkoyu2_to__to { 0% {transform: translate(215.742508px,895.838343px)} 44% {transform: translate(215.742508px,895.838343px);animation-timing-function: cubic-bezier(0.42,0,1,0.605)} 60% {transform: translate(215.742508px,223.380493px)} 100% {transform: translate(215.742508px,223.380493px)}} #elw63VBkoyu16_to {animation: elw63VBkoyu16_to__to 5000ms linear infinite alternate forwards}@keyframes elw63VBkoyu16_to__to { 0% {transform: translate(425.683487px,831.710418px)} 30% {transform: translate(425.683487px,831.710418px);animation-timing-function: cubic-bezier(0.42,0,0.98,0.56)} 44% {transform: translate(425.683487px,247.804977px)} 100% {transform: translate(425.683487px,247.804977px)}} #elw63VBkoyu31_to {animation: elw63VBkoyu31_to__to 5000ms linear infinite alternate forwards}@keyframes elw63VBkoyu31_to__to { 0% {transform: translate(453.099121px,887.356503px)} 16% {transform: translate(453.099121px,887.356503px);animation-timing-function: cubic-bezier(0.42,0,1,0.5)} 30% {transform: translate(453.099114px,438.310503px)} 100% {transform: translate(453.099114px,438.310503px)}} #elw63VBkoyu47_to {animation: elw63VBkoyu47_to__to 5000ms linear infinite alternate forwards}@keyframes elw63VBkoyu47_to__to { 0% {transform: translate(190.221315px,890.718382px);animation-timing-function: cubic-bezier(0.42,0,0.985,0.425)} 14% {transform: translate(190.221315px,491.05097px)} 100% {transform: translate(190.221315px,491.05097px)}}]]></style><g id="elw63VBkoyu2_to" transform="translate(215.742508,895.838343)"><g id="elw63VBkoyu2" transform="translate(-215.742508,-223.380493)"><g id="elw63VBkoyu3" transform="matrix(1 0 0 1 135.513 24.38)"><path id="elw63VBkoyu4" d="M181.5,170.3L185.3,4.1C185.3,4.1,185.3,4,185.2,4C185.2,4,185.2,4,185.2,4C131.3,2.6,76.9,10.2,29.2,26.7C29.1,26.7,29.1,26.8,29.2,26.8L181.4,170.3C181.4,170.4,181.4,170.4,181.5,170.3C181.5,170.4,181.5,170.4,181.5,170.3Z" fill="rgb(255,255,255)" stroke="none" stroke-width="1"/><path id="elw63VBkoyu5" d="M180.8,175L178.8,173.3L24.8,28.2L25.9,23.7L28.2,23C75.4,6.7,129.8,-1.3,185.3,0.2L189.1,0.3L189.2,4.2L185.4,172.9L180.8,175ZM36.5,28.5L177.8,161.6L181.3,7.9C130.2,7.1,80.5,14.1,36.5,28.5Z" fill="rgb(0,48,103)" stroke="none" stroke-width="1"/></g><g id="elw63VBkoyu6" transform="matrix(1 0 0 1 81.972 0)"><path id="elw63VBkoyu7" d="M82.8,4.6C64,11,46,19.1,28.8,28.9C28.7,28.9,28.7,29,28.8,29L234.7,147.9C234.7,147.9,234.8,147.9,234.8,147.9C234.8,147.9,234.8,147.8,234.8,147.8L82.8,4.6C82.8,4.6,82.8,4.6,82.8,4.6Z" fill="rgb(155,217,228)" stroke="none" stroke-width="1"/><path id="elw63VBkoyu8" d="M235.8,153.1L232.7,151.2L24.9,31.3L24.8,26.8L26.7,25.5C44.1,15.7,62.4,7.4,81.3,0.9L83.4,0L85.4,1.6L240,147.3L235.8,153.1ZM36.6,29L208.1,128L81.8,9.1C66.3,14.5,51.1,21.2,36.6,29Z" fill="rgb(0,48,103)" stroke="none" stroke-width="1"/></g><g id="elw63VBkoyu9" transform="matrix(1 0 0 1 82.022 24.461)"><path id="elw63VBkoyu10" d="M28.7,4.6L28.7,298.5C28.7,298.5,28.7,298.6,28.7,298.6L235,417.7C235,417.7,235.1,417.7,235.1,417.7C235.1,417.7,235.1,417.7,235.1,417.7L234.7,123.5C234.7,123.5,234.7,123.4,234.7,123.4L28.8,4.5C28.8,4.5,28.7,4.5,28.7,4.6C28.7,4.6,28.7,4.6,28.7,4.6Z" fill="rgb(155,217,228)" stroke="none" stroke-width="1"/><path id="elw63VBkoyu11" d="M235,422.3L233,421.1L24.8,300.9L24.8,298.6L24.8,4.6L24.8,4.6L24.8,2.3L28.8,0L30.8,1.2L238.7,121.2L238.7,123.5L239.1,420L235,422.3ZM32.6,296.3L231.2,411L230.8,125.6L32.6,11.3L32.6,296.3Z" fill="rgb(0,48,103)" stroke="none" stroke-width="1"/></g><g id="elw63VBkoyu12" transform="matrix(1 0 0 1 140.374 390.761)"><rect id="elw63VBkoyu13" width="7.8" height="294" rx="0" ry="0" transform="matrix(1 0 0 1 -15.7 -350.2)" fill="rgb(0,48,103)" stroke="none" stroke-width="1"/></g><g id="elw63VBkoyu14" transform="matrix(1 0 0 1 261.204 460.689)"><rect id="elw63VBkoyu15" width="7.8" height="294" rx="0" ry="0" transform="matrix(1 0 0 1 -15.7 -350.2)" fill="rgb(0,48,103)" stroke="none" stroke-width="1"/></g></g></g><g id="elw63VBkoyu16_to" transform="translate(425.683487,831.710418)"><g id="elw63VBkoyu16" transform="translate(-425.683487,-247.804977)"><g id="elw63VBkoyu17" transform="matrix(1 0 0 1 288.3 94.088)"><path id="elw63VBkoyu18" d="M28.8,170.3L222.7,54.1L222.7,54C170.6,22.4,102.1,5.7,32.6,3.9C32.6,3.9,32.5,3.9,32.5,4C32.5,4,32.5,4,32.5,4L28.7,170.2C28.7,170.2,28.7,170.3,28.8,170.3C28.8,170.3,28.8,170.3,28.8,170.3Z" fill="rgb(155,217,228)" stroke="none" stroke-width="1"/><path id="elw63VBkoyu19" d="M28.8,174.8L24.9,172.5L24.9,170.2L28.6,0.1L32.6,0C105.9,1.9,174.1,19.9,224.8,50.6L226.7,51.7L226.7,56.1L224.8,57.4L28.8,174.8ZM36.3,8L32.8,163.4L215.1,54C167.1,26.5,104,10.2,36.3,8Z" fill="rgb(0,48,103)" stroke="none" stroke-width="1"/></g><g id="elw63VBkoyu20" transform="matrix(1 0 0 1 288.3 143.622)"><path id="elw63VBkoyu21" d="M28.7,120.7L28.9,253.3C28.9,253.3,28.9,253.4,29,253.4C29,253.4,29,253.4,29,253.4L222.7,144.7C222.7,144.7,222.7,144.7,222.7,144.6L222.7,4.6C222.7,4.6,222.7,4.5,222.6,4.5C222.6,4.5,222.6,4.5,222.6,4.5L28.7,120.7C28.7,120.7,28.7,120.7,28.7,120.7Z" fill="rgb(0,48,103)" stroke="none" stroke-width="1"/><path id="elw63VBkoyu22" d="M29,257.9L25.1,255.6L25.1,253.3L24.9,118.3L27.1,117.1L222.6,0L226.7,2.2L226.7,4.6L226.7,146.6L225.1,147.8L29,257.9ZM32.6,122.9L32.8,246.7L218.8,142.4L218.8,11.4L32.6,122.9Z" fill="rgb(0,48,103)" stroke="none" stroke-width="1"/></g><g id="elw63VBkoyu23" transform="matrix(1 0 0 1 472.681 509.554)"><path id="elw63VBkoyu24" d="M-11.8,-255.5L9.7,-268.8L9.7,-343.2L-11.8,-330.3L-11.8,-255.5Z" fill="rgb(155,217,228)" stroke="none" stroke-width="1"/><path id="elw63VBkoyu25" d="M-15.7,-248.5L-15.7,-332.6L13.6,-350.1L13.6,-266.6L-15.7,-248.5ZM-7.9,-328.2L-7.9,-262.6L5.7,-271L5.7,-336.3L-7.9,-328.2Z" fill="rgb(0,48,103)" stroke="none" stroke-width="1"/></g><g id="elw63VBkoyu26" transform="matrix(1 0 0 1 454.362 543.638)"><rect id="elw63VBkoyu27" width="7.8" height="64.1" rx="0" ry="0" transform="matrix(1 0 0 1 -15.7 -350.2)" fill="rgb(155,217,228)" stroke="none" stroke-width="1"/></g><g id="elw63VBkoyu28" transform="matrix(1 0 0 1 500.667 453.477)"><path id="elw63VBkoyu29" d="M37.4,-272.3L29.6,-272.3L29.6,-305.4C29.6,-314.7,24.3,-323.3,16,-327.4L-15.7,-343.1L-12.2,-350.1L19.5,-334.4C30.6,-329,37.5,-317.7,37.5,-305.4L37.4,-272.3Z" fill="rgb(0,48,103)" stroke="none" stroke-width="1"/></g></g></g><rect id="elw63VBkoyu30" width="46" height="46" rx="0" ry="0" transform="matrix(14.187565 0 0 5.935086 -24.623341 529.793022)" fill="rgb(255,255,255)" stroke="none" stroke-width="1"/><g id="elw63VBkoyu31_to" transform="translate(453.099121,887.356503)"><g id="elw63VBkoyu31" transform="translate(-453.099121,-440.04451)"><g id="elw63VBkoyu32" transform="matrix(1 0 0 1 288.647 330.901)"><path id="elw63VBkoyu33" d="M300.1,132.7L300.1,4.1C300.1,4.1,300.1,4,300,4L29.1,9C29.1,9,29,9,29,9.1L28.6,174.9L29.2,174.9L87.8,325.9L87.9,325.9C135.6,319.1,180.8,304.9,218.1,283.4C270.2,253.3,297.2,216.4,299.6,177L299.8,174.9C299.9,174.9,300.3,136.1,300.1,132.7Z" fill="rgb(155,217,228)" stroke="none" stroke-width="1"/><path id="elw63VBkoyu34" d="M87.1,329.9L84.8,328.5L84.2,327.2L26.7,178.9L24.8,179L25.1,5.7L28.5,5.1L303.9,0L304,4.1L304,132.6C304.2,136.7,303.8,171,303.8,174.9L303.6,177.3C301.1,218.7,272.2,256.6,220.2,286.6C183.8,307.6,138.3,322.5,88.6,329.6L87.1,329.9ZM32.6,172.5L33,173.4L90.4,321.5C137.9,314.4,181.3,300,216.2,279.9C265.9,251.2,293.4,215.5,295.8,176.7L296,174.5C296.1,159.3,296.3,135.4,296.2,133L296.2,132.8L296.2,8L33,12.8L32.6,172.5Z" fill="rgb(21,0,53)" stroke="none" stroke-width="1"/></g><g id="elw63VBkoyu35" transform="matrix(1 0 0 1 347.303 330.901)"><path id="elw63VBkoyu36" d="M240.9,177L241.1,174.9C241.1,174.9,241.5,136.1,241.3,132.7L241.3,4.1C241.3,4.1,241.3,4,241.2,4L183.2,5.1L183.2,5.1C138.4,39.2,45.1,111.5,44.6,111.8L44.6,111.8L29.1,160.6L29.1,160.6L28.7,324.8L29.1,325.8C29.1,325.8,29.2,325.9,29.2,325.8C76.9,319,122.1,304.8,159.4,283.3C211.5,253.3,238.5,216.4,240.9,177Z" fill="rgb(0,48,103)" stroke="none" stroke-width="1"/><path id="elw63VBkoyu37" d="M26.7,330.2L24.8,324.8L25.2,159L25.7,158.5L41.2,109.7L41.9,109C43,108.1,136.5,35.8,180.8,2L182.3,1.2L183.3,1.2L245.3,0.1L245.4,4.2L245.4,132.8C245.6,136,245.3,171,245.2,175L245,177.3C242.4,218.9,213.6,256.7,161.6,286.8C125.2,307.8,79.7,322.7,30,329.8L26.7,330.2ZM33,161.3L32.6,321.4C79.9,314.2,122.9,299.9,157.4,279.9C207.1,251.2,234.6,215.5,236.9,176.7L237.1,174.5C237.2,159.3,237.4,135.4,237.3,133L237.3,8L184.4,9C142.1,41.3,57.7,106.7,47.9,114.2L33,161.3Z" fill="rgb(0,48,103)" stroke="none" stroke-width="1"/></g><g id="elw63VBkoyu38" transform="matrix(1 0 0 1 288.628 218.988)"><path id="elw63VBkoyu39" d="M28.9,120.9L87.7,272.5C87.7,272.5,87.7,272.5,87.8,272.5C135.5,265.7,180.7,251.5,218,230C325.6,168,327.2,67.9,223,4.6L222.9,4.6L28.9,120.9L28.9,120.9Z" fill="rgb(255,255,255)" stroke="none" stroke-width="1"/><path id="elw63VBkoyu40" d="M85.1,277L84,273.8L24.8,121L25.4,118.4L223,0L225.1,1.4C276.3,32.5,304.3,73.6,303.8,117C303.3,161.2,273.5,202.5,219.9,233.5C183.5,254.5,138,269.4,88.3,276.5L85.1,277ZM33.8,122.5L90.3,268.2C137.9,261.1,181.3,246.7,216.1,226.6C267.2,197.1,295.6,158.1,296,116.8C296.4,76.8,270.5,38.6,222.9,9.1L33.8,122.5Z" fill="rgb(0,48,103)" stroke="none" stroke-width="1"/></g><g id="elw63VBkoyu41" transform="matrix(1 0 0 1 579.929 758.493)"><rect id="elw63VBkoyu42" width="7.8" height="137.6" rx="0" ry="0" transform="matrix(1 0 0 1 -15.7 -350.2)" fill="rgb(155,217,228)" stroke="none" stroke-width="1"/></g><g id="elw63VBkoyu43" transform="matrix(1 0 0 1 363.619 778.347)"><rect id="elw63VBkoyu44" width="7.8" height="103.2" rx="0" ry="0" transform="matrix(1 0 0 1 -15.7 -350.2)" fill="rgb(0,48,103)" stroke="none" stroke-width="1"/></g><g id="elw63VBkoyu45" transform="matrix(1 0 0 1 412.304 841.778)"><rect id="elw63VBkoyu46" width="7.8" height="151.1" rx="0" ry="0" transform="matrix(1 0 0 1 -15.7 -350.2)" fill="rgb(155,217,228)" stroke="none" stroke-width="1"/></g></g></g><g id="elw63VBkoyu47_to" transform="translate(190.221315,890.718382)"><g id="elw63VBkoyu47" transform="translate(-190.221314,-492.473984)"><g id="elw63VBkoyu48" transform="matrix(1 0 0 1 0.024 64.148)"><path id="elw63VBkoyu49" d="M376,529.8L328.7,471.1L328.7,471.1L317.3,441.6L317.3,441.6L132.1,334.8L132,327.7L119.9,327.7L119.9,327.7L110.7,322.4L110.6,322.4C107.6,324.1,104.7,325.9,101.9,327.7L28.8,372.1C28.8,372.1,28.8,372.1,28.8,372.2L28.8,436.2C28.6,477.7,55.9,519.2,110.7,550.9C182.6,592.4,284,606.6,376,593.5C376,593.5,376.1,593.5,376.1,593.4L376,593.2L376,529.8L376,529.8Z" fill="rgb(155,217,228)" stroke="none" stroke-width="1"/><path id="elw63VBkoyu50" d="M307.6,602.2C233.8,602.2,162.6,585.4,108.6,554.3C54.4,522.9,24.6,481,24.8,436.2L24.8,369.8L27,368.6L99.9,324.4C102.7,322.6,105.6,320.8,108.7,319L109.6,318.5L111.7,318.5L121,323.8L135.9,323.8L136,332.5L320,438.9L320.6,439.5L320.9,440.3L332.1,469.2L379.9,528.3L379.9,530L379.9,592.5L380.3,593.6L378.4,597.1L376.4,597.4C353.6,600.6,330.6,602.2,307.6,602.2ZM32.6,374.3L32.6,436.2C32.4,478.1,60.8,517.6,112.6,547.5C180,586.4,279.1,602.6,372,590L372,531.3L325,472.6L314,444.4L128.2,337.1L128.1,331.7L118.9,331.7L118,331.3L110.6,327C108.3,328.3,106.1,329.7,103.9,331.1L32.6,374.3Z" fill="rgb(0,48,103)" stroke="none" stroke-width="1"/></g><g id="elw63VBkoyu51" transform="matrix(1 0 0 1 187.304 191.683)"><path id="elw63VBkoyu52" d="M28.7,460.4C74.4,469,121.2,470.8,167.4,465.9L167.4,379.5L136.8,341.6L136.8,341.6L129.4,322.4L28.7,322.4L28.7,460.4Z" fill="rgb(0,48,103)" stroke="none" stroke-width="1"/><path id="elw63VBkoyu53" d="M116.8,472.5C87,472.5,57.2,469.8,27.9,464.3L24.7,463.7L24.7,318.5L132,318.5L140.2,339.7L171.2,378.1L171.2,469.4L167.7,469.8C150.9,471.6,133.9,472.5,116.8,472.5ZM32.6,457.2C75.8,464.9,119.8,466.7,163.5,462.4L163.5,380.9L133.2,343L126.7,326.3L32.6,326.3L32.6,457.2Z" fill="rgb(0,48,103)" stroke="none" stroke-width="1"/></g><g id="elw63VBkoyu54" transform="matrix(1 0 0 1 99.858 182.907)"><path id="elw63VBkoyu55" d="M28.7,440.3C45,448.1,61.9,454.7,79.2,459.8L79.2,322.4L28.7,322.4L28.7,440.3Z" fill="rgb(0,48,103)" stroke="none" stroke-width="1"/><path id="elw63VBkoyu56" d="M83.1,465.1L78.1,463.6C60.6,458.4,43.5,451.8,27,443.8L24.8,442.7L24.8,318.5L83.1,318.5L83.1,465.1ZM32.6,437.8C46.4,444.3,60.7,449.9,75.3,454.5L75.3,326.3L32.6,326.3L32.6,437.8Z" fill="rgb(0,48,103)" stroke="none" stroke-width="1"/></g><g id="elw63VBkoyu57"><path id="elw63VBkoyu58" d="M376,593.9L317.2,442.3L317.2,442.3L110.7,323L110.6,323C1.4,386.1,1.4,488.4,110.6,551.4C182.6,593,283.9,607.2,376,594C376,594,376.1,594,376,593.9C376,593.9,376,593.9,376,593.9Z" fill="rgb(255,255,255)" stroke="none" stroke-width="1"/><path id="elw63VBkoyu59" d="M307.6,602.8C233.8,602.8,162.6,586.1,108.6,554.9C54.5,523.7,24.7,481.9,24.7,437.3C24.7,392.7,54.5,350.9,108.6,319.7L110.6,318.6L112.6,319.7L320,439.5L320.6,440.1L320.9,440.9L380.4,594.4L378.4,597.7L376.4,597.9C353.6,601.2,330.7,602.8,307.6,602.8ZM110.6,327.5C60.3,357.1,32.6,396,32.6,437.2C32.6,478.9,61,518.2,112.6,548C179.6,586.7,278.1,602.9,370.6,590.7L314.1,445L110.6,327.5Z" fill="rgb(0,48,103)" stroke="none" stroke-width="1"/></g><g id="elw63VBkoyu60" transform="matrix(1 0 0 1 15.748 818.456)"><path id="elw63VBkoyu61" d="M56.7,-191.7C11.6,-216.3,-5.7,-256.1,-12,-277.6C-14.5,-286.2,-15.8,-295.1,-15.7,-304L-15.7,-350.2L-7.9,-350.2L-7.9,-304C-7.9,-295.8,-6.8,-287.6,-4.5,-279.8C1.5,-259.5,17.9,-221.9,60.4,-198.6L56.7,-191.7Z" fill="rgb(0,48,103)" stroke="none" stroke-width="1"/></g><g id="elw63VBkoyu62" transform="matrix(1 0 0 1 15.752 768.252)"><rect id="elw63VBkoyu63" width="7.8" height="34.6" rx="0" ry="0" transform="matrix(1 0 0 1 -15.7 -350.2)" fill="rgb(0,48,103)" stroke="none" stroke-width="1"/></g></g></g></svg>