<svg xmlns="http://www.w3.org/2000/svg" width="908.606" height="780.384" viewBox="0 0 908.606 780.384">
  <g id="Group_1972" data-name="Group 1972" transform="translate(-241.585 -355.09)">
    <g id="Group_1926" data-name="Group 1926" transform="translate(287.84 393.837)">
      <g id="Group_1925" data-name="Group 1925">
        <path id="Path_1575" data-name="Path 1575" d="M1100.011,564.89,983.2,632.234a211.988,211.988,0,0,0-95.193,116.531L846.052,874.438A280.561,280.561,0,0,1,719.485,1029l-94.859,54.178L251.441,866.154l96.595-55.967A280.635,280.635,0,0,0,472.641,658.569l44.287-129.035a212.006,212.006,0,0,1,93.9-114.408l112.8-65.625Z" transform="translate(-244.575 -345.522)" fill="#9bd9e4"/>
        <path id="Path_1576" data-name="Path 1576" d="M630.207,1090.4,250.167,869.388l101.726-58.947a277.177,277.177,0,0,0,123.08-149.754l44.287-129.03a215.509,215.509,0,0,1,95.425-116.273L729.2,348.762l383.318,219.357L990.511,638.465a208.347,208.347,0,0,0-93.646,114.629L854.911,878.772A283.664,283.664,0,0,1,726.791,1035.23ZM263.9,869.4l366.335,213.045,93.135-53.191a276.848,276.848,0,0,0,125.009-152.67l41.948-125.678a215.262,215.262,0,0,1,96.746-118.418l111.611-64.348L729.233,356.717,618.156,421.345a208.59,208.59,0,0,0-92.375,112.548l-44.287,129.03A284.084,284.084,0,0,1,355.353,816.407Z" transform="translate(-250.167 -348.762)" fill="#003067"/>
      </g>
    </g>
    <g id="Group_1940" data-name="Group 1940" transform="translate(602.34 1005.094)">
      <g id="Group_1937" data-name="Group 1937">
        <g id="Group_1930" data-name="Group 1930">
          <g id="Group_1927" data-name="Group 1927" transform="translate(8.839 4.651)">
            <path id="Path_1577" data-name="Path 1577" d="M321.737,467.631c14.66-7.244,37.572-5.761,51.175,3.309s12.747,22.3-1.913,29.546-37.572,5.762-51.17-3.309S307.077,474.875,321.737,467.631Z" transform="translate(-310.159 -463.036)" fill="#9bd9e4"/>
          </g>
          <g id="Group_1928" data-name="Group 1928">
            <path id="Path_1578" data-name="Path 1578" d="M320.1,466.768c14.66-7.244,37.572-5.762,51.175,3.309s12.747,22.3-1.913,29.546-37.572,5.762-51.17-3.309S305.437,474.012,320.1,466.768Z" transform="translate(-308.519 -462.173)" fill="#fff"/>
          </g>
          <g id="Group_1929" data-name="Group 1929" transform="translate(4.819 1.366)">
            <path id="Path_1579" data-name="Path 1579" d="M320.559,502.419c-7.6-5.077-11.55-11.566-11.114-18.287s5.185-12.65,13.377-16.7h0c16-7.9,41.07-6.279,55.9,3.616,7.6,5.072,11.55,11.567,11.114,18.282s-5.185,12.65-13.372,16.7c-6.829,3.38-15.307,5.018-23.941,5.018C340.932,511.043,329.064,508.089,320.559,502.419Zm4.35-30.77h0c-6.624,3.272-10.451,7.815-10.774,12.79s2.884,9.971,9.028,14.073c13.6,9.06,36.569,10.553,51.219,3.309,6.624-3.277,10.445-7.815,10.769-12.79s-2.883-9.971-9.033-14.072c-7.788-5.2-18.659-7.9-29.282-7.9C338.927,467.057,331.161,468.561,324.909,471.649Z" transform="translate(-309.413 -462.427)" fill="#003067"/>
          </g>
        </g>
        <g id="Group_1933" data-name="Group 1933" transform="translate(22.091 12.333)">
          <g id="Group_1932" data-name="Group 1932">
            <g id="Group_1931" data-name="Group 1931">
              <path id="Path_1580" data-name="Path 1580" d="M339.434,466.743l2.867,11.092a2.357,2.357,0,0,1-.636,2.366c-1.4,1.391-4.182,1.94-6.812,1.477l-18.939-3.353c-2.291-.4-3.714-1.789-3.185-3.094h0c.528-1.3,2.814-2.026,5.1-1.622l15.582,2.76-2.393-9.249c-.35-1.363,1.245-2.549,3.568-2.651h0C336.911,464.366,339.078,465.385,339.434,466.743Z" transform="translate(-312.618 -464.462)" fill="#9bd9e4"/>
            </g>
          </g>
        </g>
        <g id="Group_1936" data-name="Group 1936" transform="translate(27.255 15.781)">
          <g id="Group_1935" data-name="Group 1935">
            <g id="Group_1934" data-name="Group 1934">
              <path id="Path_1581" data-name="Path 1581" d="M340.392,467.384l2.867,11.092a2.357,2.357,0,0,1-.636,2.366c-1.4,1.39-4.182,1.94-6.807,1.477l-18.945-3.352c-2.291-.41-3.714-1.789-3.185-3.094h0c.528-1.3,2.813-2.032,5.1-1.622l15.582,2.759-2.393-9.254c-.35-1.358,1.245-2.544,3.568-2.646h0C337.869,465,340.041,466.02,340.392,467.384Z" transform="translate(-313.576 -465.101)" fill="#003067"/>
            </g>
          </g>
        </g>
      </g>
      <g id="Group_1938" data-name="Group 1938" transform="translate(86.382 14.657)">
        <path id="Path_1582" data-name="Path 1582" d="M330.841,487.573c2.528-4.77,4.172-12.574-2.35-22.68l-3.945,2.549c4.242,6.57,4.969,12.606,2.145,17.932Z" transform="translate(-324.546 -464.893)" fill="#003067"/>
      </g>
      <g id="Group_1939" data-name="Group 1939" transform="translate(78.664 38.507)">
        <path id="Path_1583" data-name="Path 1583" d="M325.1,479.408a30.083,30.083,0,0,0,9.1-7.012l-3.547-3.077a25.58,25.58,0,0,1-7.535,5.832Z" transform="translate(-323.114 -469.318)" fill="#003067"/>
      </g>
    </g>
    <g id="Group_1941" data-name="Group 1941" transform="translate(733.948 466.13)">
      <path id="Path_1584" data-name="Path 1584" d="M631.972,543.494,334.219,372.517l16.635-9.6L648.607,533.889Z" transform="translate(-327.309 -358.934)" fill="#fff"/>
      <path id="Path_1585" data-name="Path 1585" d="M637.6,550.713l-1.719-.986L332.937,375.768l23.537-13.593,1.719.992L661.144,537.12ZM346.751,375.752,637.591,542.758l9.734-5.616L356.485,370.13Z" transform="translate(-332.937 -362.175)" fill="#003067"/>
    </g>
    <g id="Group_1942" data-name="Group 1942" transform="translate(728.622 424.656)">
      <path id="Path_1586" data-name="Path 1586" d="M668.812,558.155,333.229,364.822l16.635-9.6L685.446,548.551Z" transform="translate(-326.329 -351.238)" fill="#fff"/>
      <path id="Path_1587" data-name="Path 1587" d="M674.428,565.375,331.949,368.067l23.532-13.587,1.719,1,340.76,196.31ZM345.747,368.062,674.428,557.419l9.739-5.622L355.481,362.441Z" transform="translate(-331.949 -354.48)" fill="#003067"/>
    </g>
    <g id="Group_1943" data-name="Group 1943" transform="translate(765.165 522.953)">
      <path id="Path_1588" data-name="Path 1588" d="M573.956,516.769,340.014,383.061l16.635-9.6L590.591,507.164Z" transform="translate(-333.088 -369.478)" fill="#fff"/>
      <path id="Path_1589" data-name="Path 1589" d="M579.607,523.986,338.729,386.311l23.553-13.593,240.867,137.67Zm-227.031-137.7,227.01,129.747,9.728-5.611L362.3,380.673Z" transform="translate(-338.729 -372.718)" fill="#003067"/>
    </g>
    <g id="Group_1944" data-name="Group 1944" transform="translate(385.469 878.907)">
      <path id="Path_1590" data-name="Path 1590" d="M453.133,553.521,269.567,449.1l16.635-9.6L469.768,543.917Z" transform="translate(-262.638 -435.524)" fill="#fff"/>
      <path id="Path_1591" data-name="Path 1591" d="M458.792,560.73l-1.719-.976L268.281,452.365l23.548-13.6,1.719.975,188.786,107.4ZM282.138,452.322,458.759,552.786l9.718-5.611L291.861,446.706Z" transform="translate(-268.281 -438.761)" fill="#003067"/>
    </g>
    <g id="Group_1945" data-name="Group 1945" transform="translate(669.804 541.327)">
      <path id="Path_1592" data-name="Path 1592" d="M333.323,376.929c-3.929,4.086-7.724,8.3-11.313,12.677L595.5,545.531c3.66-4.339,7.475-8.548,11.475-12.585Z" transform="translate(-316.76 -372.607)" fill="#fff"/>
      <path id="Path_1593" data-name="Path 1593" d="M600.558,553.471,321.036,394.1l2.582-3.158c3.471-4.231,7.341-8.57,11.5-12.882l1.859-1.935L616.862,535.7l-3.164,3.191c-3.784,3.816-7.578,7.977-11.292,12.386ZM331.578,392.183,599,544.648c2.21-2.555,4.441-5.029,6.678-7.389L338.24,384.783C335.906,387.257,333.675,389.731,331.578,392.183Z" transform="translate(-321.036 -376.127)" fill="#003067"/>
    </g>
    <g id="Group_1946" data-name="Group 1946" transform="translate(649.642 574.307)">
      <path id="Path_1594" data-name="Path 1594" d="M318.155,397.405,591.107,553.023q4.066-7.276,8.688-14.2L326.654,383.1Q322.135,390.078,318.155,397.405Z" transform="translate(-313.52 -378.493)" fill="#fff"/>
      <path id="Path_1595" data-name="Path 1595" d="M596.2,561.492l-278.9-159.008,1.606-2.97c2.646-4.883,5.546-9.772,8.629-14.536l1.773-2.732L608.48,541.41l-2.043,3.078c-3.072,4.614-5.945,9.313-8.543,13.965ZM326.592,399.849l267,152.228q2.417-4.164,5.088-8.322L331.572,391.473C329.842,394.238,328.177,397.041,326.592,399.849Z" transform="translate(-317.295 -382.246)" fill="#003067"/>
    </g>
    <g id="Group_1947" data-name="Group 1947" transform="translate(608.378 505.652)">
      <path id="Path_1596" data-name="Path 1596" d="M321.91,370.322c-3.929,4.08-7.718,8.295-11.313,12.677l15.625,9.588c3.66-4.339,7.476-8.548,11.475-12.585Z" transform="translate(-305.434 -365.935)" fill="#fff"/>
      <path id="Path_1597" data-name="Path 1597" d="M331.155,400.655l-21.516-13.216,2.5-3.05c3.466-4.231,7.336-8.564,11.5-12.887l1.919-1.994,21.85,13.4L344.349,386c-3.757,3.8-7.551,7.966-11.286,12.391ZM320.014,385.72l9.707,5.961c2.226-2.571,4.474-5.05,6.716-7.416l-9.739-5.972C324.348,380.778,322.116,383.268,320.014,385.72Z" transform="translate(-309.639 -369.508)" fill="#003067"/>
    </g>
    <g id="Group_1948" data-name="Group 1948" transform="translate(588.182 538.6)">
      <path id="Path_1598" data-name="Path 1598" d="M306.742,390.8l15.091,9.281q4.067-7.276,8.688-14.2l-15.28-9.389Q310.722,383.471,306.742,390.8Z" transform="translate(-302.161 -371.789)" fill="#fff"/>
      <path id="Path_1599" data-name="Path 1599" d="M326.826,408.736l-20.934-12.876,1.558-2.867c2.619-4.851,5.524-9.739,8.624-14.541l1.827-2.83,21.2,13.022-1.983,2.981c-3.045,4.565-5.918,9.265-8.543,13.965Zm-11.739-15.318,9.249,5.686c1.622-2.792,3.326-5.573,5.088-8.311l-9.367-5.756C318.321,387.823,316.655,390.621,315.087,393.418Z" transform="translate(-305.892 -375.621)" fill="#003067"/>
    </g>
    <g id="Group_1949" data-name="Group 1949" transform="translate(616.84 662.084)">
      <path id="Path_1600" data-name="Path 1600" d="M311.985,415.506,582.119,570.464l5.377-16.108L317.489,399.471Z" transform="translate(-307.803 -394.408)" fill="#fff"/>
      <path id="Path_1601" data-name="Path 1601" d="M587.459,579.67,311.209,421.207l7.783-22.675L595.064,556.893ZM319.574,418.054,583.59,569.5l3.148-9.432L322.8,408.659Z" transform="translate(-311.209 -398.532)" fill="#003067"/>
    </g>
    <g id="Group_1950" data-name="Group 1950" transform="translate(604.384 701.014)">
      <path id="Path_1602" data-name="Path 1602" d="M309.674,422.73,579.808,577.688l5.377-16.108L315.178,406.695Z" transform="translate(-305.49 -401.629)" fill="#fff"/>
      <path id="Path_1603" data-name="Path 1603" d="M585.154,586.9,308.9,428.43l7.783-22.675L592.759,564.121ZM317.263,425.282,581.279,576.728l3.153-9.437L320.491,415.882Z" transform="translate(-308.898 -405.755)" fill="#003067"/>
    </g>
    <g id="Group_1951" data-name="Group 1951" transform="translate(590.726 737.643)">
      <path id="Path_1604" data-name="Path 1604" d="M307.14,429.524,577.274,584.482l5.377-16.108L312.645,413.49Z" transform="translate(-302.955 -408.429)" fill="#fff"/>
      <path id="Path_1605" data-name="Path 1605" d="M582.62,593.689,306.364,435.22l7.783-22.669L590.219,570.912ZM314.734,432.073l264.01,151.446,3.148-9.437-263.935-151.4Z" transform="translate(-306.364 -412.551)" fill="#003067"/>
    </g>
    <g id="Group_1952" data-name="Group 1952" transform="translate(558.717 627.913)">
      <path id="Path_1606" data-name="Path 1606" d="M301.2,409.195l16.034,9.974,5.377-16.108-15.906-9.9Z" transform="translate(-297.042 -387.944)" fill="#fff"/>
      <path id="Path_1607" data-name="Path 1607" d="M322.5,428.654l-22.071-13.733,7.8-22.729,21.893,13.631Zm-13.765-16.687,10,6.214,3.126-9.383-9.917-6.171Z" transform="translate(-300.425 -392.192)" fill="#003067"/>
    </g>
    <g id="Group_1953" data-name="Group 1953" transform="translate(546.261 666.843)">
      <path id="Path_1608" data-name="Path 1608" d="M298.885,416.418l16.034,9.974,5.377-16.108-15.907-9.9Z" transform="translate(-294.729 -395.166)" fill="#fff"/>
      <path id="Path_1609" data-name="Path 1609" d="M320.185,435.871l-22.071-13.728,7.8-22.728,21.9,13.631ZM306.419,419.2l10,6.22,3.131-9.394-9.923-6.177Z" transform="translate(-298.114 -399.415)" fill="#003067"/>
    </g>
    <g id="Group_1954" data-name="Group 1954" transform="translate(532.609 703.472)">
      <path id="Path_1610" data-name="Path 1610" d="M296.351,423.213l16.034,9.974,5.377-16.108-15.907-9.9Z" transform="translate(-292.2 -401.965)" fill="#fff"/>
      <path id="Path_1611" data-name="Path 1611" d="M317.652,442.667l-22.071-13.733,7.8-22.723,21.888,13.62Zm-13.765-16.681,9.993,6.214,3.126-9.384-9.917-6.177Z" transform="translate(-295.581 -406.211)" fill="#003067"/>
    </g>
    <g id="Group_1955" data-name="Group 1955" transform="translate(468.344 788.801)">
      <rect id="Rectangle_1491" data-name="Rectangle 1491" width="6.897" height="431.844" transform="translate(0 5.954) rotate(-59.687)" fill="#003067"/>
    </g>
    <g id="Group_1956" data-name="Group 1956" transform="translate(466.264 817.381)">
      <rect id="Rectangle_1492" data-name="Rectangle 1492" width="6.893" height="341.387" transform="matrix(0.503, -0.864, 0.864, 0.503, 0, 5.957)" fill="#003067"/>
    </g>
    <g id="Group_1957" data-name="Group 1957" transform="translate(556.894 576.114)">
      <rect id="Rectangle_1493" data-name="Rectangle 1493" width="6.898" height="431.842" transform="matrix(0.505, -0.863, 0.863, 0.505, 0, 5.955)" fill="#003067"/>
    </g>
    <g id="Group_1958" data-name="Group 1958" transform="translate(450.184 832.585)">
      <rect id="Rectangle_1494" data-name="Rectangle 1494" width="6.893" height="341.387" transform="translate(0 5.957) rotate(-59.797)" fill="#003067"/>
    </g>
    <g id="Group_1959" data-name="Group 1959" transform="translate(521.52 744.719)">
      <rect id="Rectangle_1495" data-name="Rectangle 1495" width="6.893" height="341.387" transform="matrix(0.503, -0.864, 0.864, 0.503, 0, 5.957)" fill="#003067"/>
    </g>
    <g id="Group_1965" data-name="Group 1965" transform="translate(267.984 396.925)">
      <g id="Group_1960" data-name="Group 1960">
        <path id="Path_1612" data-name="Path 1612" d="M372.272,734.606l33.244-14.768a2.637,2.637,0,0,0,1.434-3.25L286.872,355.746c-1.806-3.627-6.64-6.107-14.531-5.735a32.958,32.958,0,0,0-16.832,5.595c-6.516,4.4-8.92,9.233-8.289,13.2L368.688,733.027A2.643,2.643,0,0,0,372.272,734.606Z" transform="translate(-243.674 -346.529)" fill="#003067"/>
        <path id="Path_1613" data-name="Path 1613" d="M374,741.087a6.094,6.094,0,0,1-5.778-4.172L246.623,372.15c-.911-5.735,2.646-11.787,9.766-16.595a36.234,36.234,0,0,1,18.605-6.182c8.651-.4,15.151,2.377,17.775,7.637L413.031,718.3a6.058,6.058,0,0,1-3.3,7.486l-33.244,14.768A6.1,6.1,0,0,1,374,741.087ZM253.4,370.829,374.489,733.9l31.767-14.111L286.415,359.635c-1.148-2.21-5.347-3.687-11.1-3.374a29.3,29.3,0,0,0-15.064,5.007C255.64,364.378,253.107,367.935,253.4,370.829Z" transform="translate(-246.483 -349.335)" fill="#003067"/>
      </g>
      <g id="Group_1961" data-name="Group 1961" transform="translate(3.794 11.562)">
        <path id="Path_1614" data-name="Path 1614" d="M372.976,736.75l33.244-14.763a2.654,2.654,0,0,0,1.439-3.255L287.582,357.89c-1.811-3.622-6.64-6.1-14.531-5.735a32.959,32.959,0,0,0-16.838,5.595c-6.511,4.4-8.92,9.233-8.289,13.2L369.392,735.171A2.643,2.643,0,0,0,372.976,736.75Z" transform="translate(-244.377 -348.674)" fill="#9bd9e4"/>
        <path id="Path_1615" data-name="Path 1615" d="M374.713,743.232a6.1,6.1,0,0,1-5.783-4.166L247.327,374.3c-.911-5.74,2.646-11.793,9.766-16.6a36.267,36.267,0,0,1,18.6-6.182c8.651-.393,15.156,2.382,17.781,7.643L413.735,720.455a6.064,6.064,0,0,1-3.3,7.487L377.187,742.7A6,6,0,0,1,374.713,743.232ZM254.107,372.979,375.193,736.053l31.772-14.116L287.119,361.784c-1.142-2.215-5.32-3.67-11.1-3.379a29.369,29.369,0,0,0-15.064,5.007C256.35,366.527,253.811,370.079,254.107,372.979Z" transform="translate(-247.187 -351.48)" fill="#003067"/>
      </g>
      <g id="Group_1962" data-name="Group 1962" transform="translate(16.006 48.3)">
        <path id="Path_1616" data-name="Path 1616" d="M375.243,743.573,408.486,728.8a2.654,2.654,0,0,0,1.439-3.255L289.842,364.707c-1.805-3.622-6.635-6.1-14.531-5.735a33.01,33.01,0,0,0-16.832,5.595c-6.516,4.4-8.92,9.238-8.289,13.2L371.659,741.988A2.649,2.649,0,0,0,375.243,743.573Z" transform="translate(-246.642 -355.488)" fill="#fff"/>
        <path id="Path_1617" data-name="Path 1617" d="M376.975,750.052a6.1,6.1,0,0,1-5.778-4.166l-121.6-364.766c-.916-5.74,2.646-11.787,9.766-16.6a36.269,36.269,0,0,1,18.6-6.182c8.65-.415,15.151,2.377,17.781,7.643l120.267,361.3a6.065,6.065,0,0,1-3.315,7.486l-33.238,14.763A6.015,6.015,0,0,1,376.975,750.052ZM256.375,379.8,377.46,742.873l31.772-14.116L289.387,368.6c-1.148-2.215-5.33-3.66-11.1-3.379a29.419,29.419,0,0,0-15.064,5.007C258.611,373.347,256.078,376.9,256.375,379.8Z" transform="translate(-249.453 -358.296)" fill="#003067"/>
      </g>
      <g id="Group_1963" data-name="Group 1963" transform="translate(137.498 412.637)">
        <path id="Path_1618" data-name="Path 1618" d="M313.516,435.506l-.534-1.531c-.986-4.581-6.241-7.874-15.42-7.395a32.645,32.645,0,0,0-16.137,5.325c-6.754,4.425-9.281,9.319-8.715,13.345h0l.005.011a7.081,7.081,0,0,0,.765,2.35c1.822,4.91,7.239,16.229,19.824,20.875l14.385-3.552S317.833,447.407,313.516,435.506Z" transform="translate(-269.186 -423.087)" fill="#9bd9e4"/>
        <path id="Path_1619" data-name="Path 1619" d="M295.908,474.894l-.992-.366c-13.992-5.169-19.948-17.748-21.856-22.917a9.13,9.13,0,0,1-.954-3.05c-.825-5.832,2.91-11.922,10.235-16.724a36.048,36.048,0,0,1,17.851-5.9c12.289-.587,17.829,4.813,18.966,10.122l.4,1.078c4.813,13.259-5.638,31.552-6.085,32.322l-.733,1.272Zm6.144-42.1c-.49,0-.992.016-1.5.038a29.14,29.14,0,0,0-14.434,4.77c-4.926,3.234-7.61,6.963-7.19,9.982a3.735,3.735,0,0,0,.4,1.213c1.725,4.565,6.392,14.5,17.015,18.9l11.857-2.932c2.824-5.39,7.713-17.463,4.878-25.267l-.544-1.568C311.8,434.611,307.781,432.789,302.052,432.789Z" transform="translate(-271.994 -425.895)" fill="#003067"/>
      </g>
      <path id="Path_1620" data-name="Path 1620" d="M286.456,445.253a32.713,32.713,0,0,1,16.142-5.33c5.266-.275,9.195.722,11.814,2.468a19.81,19.81,0,0,0-1.062-7.028l-.534-1.531c-.986-4.581-6.241-7.874-15.42-7.395a32.646,32.646,0,0,0-16.137,5.325c-6.748,4.425-9.281,9.319-8.71,13.345h-.005l.005.011a6.9,6.9,0,0,0,.771,2.345,40.567,40.567,0,0,0,4.5,8.6C278.4,452.616,281.066,448.789,286.456,445.253Z" transform="translate(-132.396 -11.078)" fill="#003067"/>
      <g id="Group_1964" data-name="Group 1964" transform="translate(157.623 446.33)">
        <path id="Path_1621" data-name="Path 1621" d="M291.65,460.524l-.922-14.725a26.16,26.16,0,0,1,.76-8.758c.544-1.908-.625-3.557-3.223-4.086a12.339,12.339,0,0,0-10.585,3.536c-1.838,2.075-1.692,4.193.108,5.363a12.166,12.166,0,0,1,4.031,5.239l6.651,14.24A1.67,1.67,0,0,0,291.65,460.524Z" transform="translate(-272.921 -429.34)" fill="#fff"/>
        <path id="Path_1622" data-name="Path 1622" d="M292.754,468.558a5.047,5.047,0,0,1-4.6-2.959L281.5,451.36a8.792,8.792,0,0,0-2.792-3.81,6.376,6.376,0,0,1-2.927-4.49,7.67,7.67,0,0,1,2.123-6.042,15.714,15.714,0,0,1,13.857-4.635,7.578,7.578,0,0,1,5.223,3.374,6.281,6.281,0,0,1,.625,5.039,22.625,22.625,0,0,0-.636,7.594l.922,14.73a5.052,5.052,0,0,1-3.843,5.271A5.142,5.142,0,0,1,292.754,468.558Zm-9.987-26.582a15.826,15.826,0,0,1,4.98,6.468l2.684,5.74-.334-5.363a29.782,29.782,0,0,1,.781-9.545,3.067,3.067,0,0,0-.5-.14,8.967,8.967,0,0,0-7.319,2.452A3.994,3.994,0,0,0,282.767,441.976Z" transform="translate(-275.728 -432.146)" fill="#003067"/>
      </g>
    </g>
    <g id="Group_1966" data-name="Group 1966" transform="translate(277.303 405.161)">
      <path id="Path_1623" data-name="Path 1623" d="M404.358,795.451c-8.435-5.406-15.215-21.85-15.5-22.551L248.212,352.544l5.029-1.681,140.591,420.2c1.7,4.161,7.562,16.185,13.388,19.926Z" transform="translate(-248.212 -350.863)" fill="#003067"/>
    </g>
    <g id="Group_1967" data-name="Group 1967" transform="translate(415.228 817.468)">
      <rect id="Rectangle_1496" data-name="Rectangle 1496" width="5.305" height="10.877" transform="translate(0 1.826) rotate(-20.133)" fill="#9bd9e4"/>
    </g>
    <g id="Group_1968" data-name="Group 1968" transform="translate(248.444 374.838)">
      <path id="Path_1624" data-name="Path 1624" d="M314.634,609.873l-69.662-209.44c-4.522-13.6-1.676-28.285,7.432-38.321,6.824-7.524,16.476-13.2,28.684-16.875l1.525,5.083c-11.27,3.39-20.114,8.559-26.28,15.355-7.826,8.618-10.246,21.3-6.328,33.088L319.669,608.2Z" transform="translate(-242.858 -345.237)" fill="#9bd9e4"/>
    </g>
    <g id="Group_1969" data-name="Group 1969" transform="translate(326.063 655.364)">
      <rect id="Rectangle_1497" data-name="Rectangle 1497" width="5.306" height="91.163" transform="translate(0 1.675) rotate(-18.397)" fill="#9bd9e4"/>
    </g>
    <g id="Group_1970" data-name="Group 1970" transform="translate(241.585 355.09)">
      <path id="Path_1625" data-name="Path 1625" d="M246.064,371.448l-4.479-2.835c.7-1.1,17.554-27.04,53.121-27.04v5.3A59.762,59.762,0,0,0,246.064,371.448Z" transform="translate(-241.585 -341.573)" fill="#9bd9e4"/>
    </g>
  </g>
</svg>
