<svg id="e9aXNtWyUQ51" xmlns="http://www.w3.org/2000/svg" xmlns:xlink="http://www.w3.org/1999/xlink" viewBox="0 0 215 73.829" shape-rendering="geometricPrecision" text-rendering="geometricPrecision"><style><![CDATA[#e9aXNtWyUQ518_tr {animation: e9aXNtWyUQ518_tr__tr 3000ms linear 1 normal forwards}@keyframes e9aXNtWyUQ518_tr__tr { 0% {transform: translate(119.522px,34.674px) rotate(68.108016deg)} 33.333333% {transform: translate(119.522px,34.674px) rotate(0deg)} 100% {transform: translate(119.522px,34.674px) rotate(0deg)}} #e9aXNtWyUQ518_ts {animation: e9aXNtWyUQ518_ts__ts 3000ms linear 1 normal forwards}@keyframes e9aXNtWyUQ518_ts__ts { 0% {transform: scale(0.268518,0.268518)} 33.333333% {transform: scale(1,1)} 100% {transform: scale(1,1)}} #e9aXNtWyUQ522_tr {animation: e9aXNtWyUQ522_tr__tr 3000ms linear 1 normal forwards}@keyframes e9aXNtWyUQ522_tr__tr { 0% {transform: translate(119.297264px,34.674px) rotate(-58.179677deg)} 33.333333% {transform: translate(119.297264px,34.674px) rotate(0deg)} 100% {transform: translate(119.297264px,34.674px) rotate(0deg)}} #e9aXNtWyUQ522_ts {animation: e9aXNtWyUQ522_ts__ts 3000ms linear 1 normal forwards}@keyframes e9aXNtWyUQ522_ts__ts { 0% {transform: scale(0.388626,0.388615)} 33.333333% {transform: scale(1,1)} 100% {transform: scale(1,1)}}]]></style><g id="e9aXNtWyUQ52" transform="matrix(1 0 0 1 -21.259 -112.061)"><g id="e9aXNtWyUQ53" transform="matrix(1 0 0 1 167.92 112.061)"><g id="e9aXNtWyUQ54"><path id="e9aXNtWyUQ55" d="M200.787,150.782C200.787,145.968,203.782,141.904,206.563,139.23C208.994296,137.02725,211.732942,135.189696,214.693,133.775C209.666,130.887,206.778,127.575,206.778,123.293C206.778,118.051,213.517,112.061,219.399,112.061C226.137,112.061,231.272,116.874,231.165,122.544C230.951,127.036,226.352,130.672,223.036,132.385C228.365209,135.717821,233.041754,139.994827,236.836,145.006C239.143027,142.119153,241.083164,138.957361,242.612,135.593C242.825,134.524,242.076,133.668,240.794,133.668L239.725,133.668C239.402852,133.63329,239.166455,133.349082,239.191,133.026L239.191,130.672C239.191,130.352,239.404,130.139,239.832,130.139C240.473,130.139,244.11,130.352,246.892,130.352C249.458,130.352,253.629,130.139,254.165,130.139C254.701,130.139,254.806,130.459,254.806,130.887L254.806,133.026C254.813119,133.198177,254.747908,133.365486,254.626151,133.487432C254.504395,133.609379,254.337188,133.67485,254.165,133.668L253.095,133.668C251.555457,133.535378,250.014865,133.910867,248.709,134.737C247.962,135.272,240.367,145.647,238.975,147.787C240.045,148.963,243.041,152.387,244.003,153.242C245.928,155.06,249.031,158.055,252.239,158.055C256.733,158.055,259.726,153.671,260.154,153.135C260.582,152.599,260.795,152.386,261.009,152.601L262.293,153.563C262.614,153.67,262.507,153.883,262.399,154.204C261.223,156.451,257.265,162.761,249.03,162.761C241.113,162.761,236.514,156.022,234.054,153.348C230.738,156.343,225.282,162.761,216.083,162.761C208.809,162.762,200.787,158.59,200.787,150.782ZM232.02,150.567C228.704,145.967,222.929,138.802,217.259,135.7C211.804,138.481,207.526,142.973,207.739,148.536C207.846,154.098,213.729,157.628,218.757,157.628C225.5,157.627,230.095,152.707,232.02,150.567ZM213.408,123.4C213.408,126.395,217.367,129.39,220.361,131.208C222.929,129.069,224.961,127.679,224.961,121.581C224.961,118.907,222.607,115.27,219.399,115.27C216.3,115.27,213.408,118.158,213.408,123.4Z" transform="matrix(1 0 0 1 -200.787 -112.061)" fill="rgb(0,36,85)" stroke="none" stroke-width="1"/></g></g><g id="e9aXNtWyUQ56" transform="matrix(1 0 0 1 22.163 161.042)"><path id="e9aXNtWyUQ57" d="M26.173,193.052C23.778542,190.789864,22.403904,187.653335,22.363381,184.359546C22.322859,181.065756,23.619918,177.896359,25.958,175.576C28.169,173.548,31.087,172.32,35.664,172.32C37.154181,172.313133,38.642854,172.415742,40.118,172.627C41.285,172.78,42.268,173.057,43.189,173.149C43.527,173.181,43.65,173.334,43.65,173.518C43.65,173.763,43.559,174.132,43.496,175.207C43.435,176.22,43.466,177.907,43.405,178.525C43.374,178.986,43.313,179.231,43.037,179.231C42.791,179.231,42.729,178.986,42.729,178.555C42.683518,177.498968,42.257251,176.495109,41.529,175.729C40.515,174.653,38.12,173.829,35.294,173.829C33.194396,173.67864,31.120046,174.361228,29.52,175.729C27.278,177.787,26.694,180.705,26.694,183.684C26.694,190.993,32.253,194.618,36.369,194.618C39.102,194.618,40.761,194.311,41.989,192.898C42.484909,192.308854,42.842045,191.61577,43.034,190.87C43.125,190.379,43.187,190.256,43.434,190.256C43.649,190.256,43.711,190.472,43.711,190.717C43.582701,192.093288,43.356799,193.458725,43.035,194.803C42.970086,195.23285,42.655524,195.5828,42.235,195.693C40.440885,196.217456,38.575358,196.456046,36.707,196.4C32.5,196.4,28.969,195.478,26.173,193.052Z" transform="matrix(1 0 0 1 -22.365 -172.238974)" fill="rgb(0,36,85)" stroke="none" stroke-width="1"/><path id="e9aXNtWyUQ58" d="M55.847,181.753C55.847,177.084,55.847,176.225,55.786,175.242C55.725,174.198,55.479,173.706,54.465,173.491C54.068824,173.422339,53.667013,173.391533,53.265,173.399C52.927,173.399,52.743,173.337,52.743,173.122C52.743,172.907,52.958,172.846,53.419,172.846C55.046,172.846,56.982,172.938,57.627,172.938C58.671,172.938,61.005,172.846,61.958,172.846C63.931637,172.706605,65.901347,173.166704,67.609,174.166C68.920001,175.168887,69.691347,176.723402,69.697,178.374C69.697,180.647,68.745,182.736,65.643,185.254C68.376,188.694,70.496,191.427,72.307,193.332C73.185055,194.396598,74.39744,195.132839,75.747,195.421C76.030301,195.47757,76.318144,195.508363,76.607,195.513C76.853,195.513,76.975,195.604,76.975,195.759C76.975,196.005,76.76,196.066,76.392,196.066L73.477,196.066C72.349081,196.17285,71.21332,195.971344,70.191,195.483C68.87,194.776,67.703,193.332,65.983,190.967C64.754,189.278,63.342,187.189,62.942,186.728C62.803623,186.570714,62.597208,186.490835,62.389,186.514L59.717,186.452C59.563,186.452,59.471,186.514,59.471,186.699L59.471,187.13C59.471,189.985,59.471,192.411,59.625,193.702C59.716,194.592,59.9,195.268,60.825,195.391C61.322424,195.458946,61.823152,195.500006,62.325,195.514C62.571,195.514,62.693,195.605,62.693,195.76C62.693,195.974,62.478,196.067,62.079,196.067C60.298,196.067,58.025,195.974,57.565,195.974C56.981,195.974,55.046,196.067,53.817,196.067C53.417,196.067,53.203,195.974,53.203,195.76C53.203,195.606,53.325,195.514,53.694,195.514C54.066106,195.514491,54.437093,195.473233,54.8,195.391C55.414,195.268,55.568,194.591,55.69,193.702C55.844,192.411,55.844,189.985,55.844,187.159ZM59.471,184.179C59.471,184.517,59.533,184.64,59.748,184.733C60.506949,184.948108,61.29325,185.051196,62.082,185.039C62.848472,185.145698,63.626982,184.959284,64.262,184.517C65.184,183.841,66.075,182.428,66.075,179.91C66.075,175.548,63.188,174.29,61.375,174.29C60.829347,174.264401,60.282613,174.305709,59.747,174.413C59.532,174.474,59.47,174.597,59.47,174.844Z" transform="matrix(1 0 0 1 -27.927 -172.334974)" fill="rgb(0,36,85)" stroke="none" stroke-width="1"/><path id="e9aXNtWyUQ59" d="M84.588,187.9C84.434,187.9,84.372,187.961,84.311,188.146L82.653,192.537C82.398403,193.132832,82.242368,193.766092,82.191,194.412C82.191,194.965,82.468,195.364,83.42,195.364L83.882,195.364C84.25,195.364,84.343,195.425,84.343,195.61C84.343,195.856,84.158,195.917,83.821,195.917C82.838,195.917,81.521,195.824,80.565,195.824C80.228,195.824,78.538,195.917,76.94,195.917C76.54,195.917,76.357,195.856,76.357,195.61C76.357,195.425,76.48,195.364,76.725,195.364C77.043508,195.360153,77.361601,195.339792,77.678,195.303C79.09,195.118,79.678,194.074,80.288,192.538L88,173.248C88.368,172.357,88.553,172.019,88.859,172.019C89.136,172.019,89.321,172.295,89.627,173.001C90.365,174.691,95.279,187.223,97.245,191.891C98.412,194.656,99.303,195.086,99.945,195.239C100.369981,195.321822,100.802025,195.363017,101.235,195.362C101.481,195.362,101.635,195.393,101.635,195.608C101.635,195.854,101.359,195.915,100.223,195.915C99.117,195.915,96.875,195.915,94.417,195.854C93.865,195.822,93.496,195.822,93.496,195.608C93.496,195.423,93.619,195.362,93.926,195.332C94.063683,195.283778,94.173439,195.177829,94.22649,195.041933C94.279542,194.906038,94.270596,194.75375,94.202,194.625L91.746,188.113C91.70607,187.978374,91.578098,187.889459,91.438,187.899ZM90.853,186.364C91.007,186.364,91.038,186.272,91.007,186.18L88.243,178.593C88.212,178.47,88.182,178.316,88.089,178.316C87.996,178.316,87.936,178.47,87.905,178.593L85.079,186.148C85.049,186.271,85.079,186.364,85.202,186.364Z" transform="matrix(1 0 0 1 -32.25 -172.183974)" fill="rgb(0,36,85)" stroke="none" stroke-width="1"/><path id="e9aXNtWyUQ510" d="M105.569,175.856C105.400877,175.037378,105.007426,174.281994,104.433,173.675C104.050389,173.488732,103.629508,173.394556,103.204,173.4C102.897,173.4,102.713,173.368,102.713,173.123C102.713,172.908,102.959,172.847,103.389,172.847C104.989,172.847,106.675,172.939,106.952,172.939C107.229,172.939,108.58,172.847,110.361,172.847Q111.007,172.847,111.006,173.123C111.006,173.368,110.76,173.4,110.453,173.4C110.191145,173.37827,109.92793,173.42048,109.686,173.523C109.409,173.646,109.348,173.86,109.348,174.199C109.505214,175.155676,109.731132,176.099785,110.024,177.024C110.546,179.051,113.403,188.358,113.956,190.078L114.047,190.078L120.006,174.078C120.313,173.218,120.528,172.973,120.774,172.973C121.111,172.973,121.266,173.434,121.665,174.417L128.053,189.867L128.145,189.867C128.697,187.809,131.155,179.7,132.23,176.108C132.413667,175.530605,132.516641,174.930594,132.536,174.325C132.536,173.835,132.259,173.405,131.061,173.405C130.755,173.405,130.539,173.312,130.539,173.128C130.539,172.913,130.785,172.852,131.246,172.852C132.874,172.852,134.164,172.944,134.44,172.944C134.655,172.944,135.977,172.852,136.99,172.852C137.328,172.852,137.543,172.913,137.543,173.097C137.543,173.312,137.389,173.405,137.112,173.405C136.747765,173.397768,136.384754,173.449434,136.037,173.558C135.3,173.835,134.962,175.058,134.317,176.814C132.904,180.684,129.679,190.451,128.174,195.058C127.837,196.133,127.683,196.502,127.284,196.502C126.977,196.502,126.792,196.133,126.331,194.996L119.944,179.6L119.883,179.6C119.3,181.166,115.214,192.038,113.893,194.864C113.31,196.124,113.156,196.493,112.787,196.493C112.481,196.493,112.357,196.155,112.081,195.355Z" transform="matrix(1 0 0 1 -37.075 -172.334974)" fill="rgb(0,36,85)" stroke="none" stroke-width="1"/><path id="e9aXNtWyUQ511" d="M153.525,187.1C153.525,190.049,153.525,192.352,153.678,193.643C153.77,194.533,153.954,195.209,154.878,195.332C155.387071,195.403756,155.899997,195.44483,156.414,195.455C156.814,195.455,156.937,195.546,156.937,195.701C156.937,195.915,156.721,196.008,156.261,196.008C154.325,196.008,152.39,195.915,151.592,195.915C150.794,195.915,148.859,196.008,147.692,196.008C147.261,196.008,147.047,195.947,147.047,195.701C147.047,195.547,147.17,195.455,147.508,195.455C147.880106,195.455491,148.251093,195.414233,148.614,195.332C149.228,195.209,149.382,194.532,149.505,193.643C149.658,192.352,149.658,190.049,149.658,187.1L149.658,181.7C149.658,177.031,149.658,176.172,149.597,175.189C149.535,174.145,149.29,173.653,148.276,173.438C147.879824,173.369339,147.478013,173.338533,147.076,173.346C146.769,173.346,146.554,173.284,146.554,173.099C146.554,172.854,146.799,172.793,147.26,172.793C148.06,172.793,148.949,172.822,149.748,172.822C150.548,172.854,151.248,172.885,151.683,172.885C152.85,172.885,159.083,172.885,159.791,172.854C160.214145,172.85717,160.636456,172.815944,161.051,172.731C161.235,172.67,161.389,172.546,161.542,172.546C161.67781,172.562661,161.774466,172.686166,161.758,172.822C161.758,173.038,161.604,173.407,161.512,174.205C161.481,174.512,161.419,176.324,161.358,176.693C161.327,176.938,161.265,177.124,161.051,177.124C160.837,177.124,160.775,176.97,160.744,176.632C160.760119,176.234267,160.697241,175.837284,160.559,175.464C160.097514,174.815557,159.323972,174.464086,158.532,174.543L153.802,174.452C153.618,174.452,153.526,174.543,153.526,174.882L153.526,182.561C153.526,182.745,153.556,182.837,153.741,182.837L157.672,182.806C158.194,182.806,158.625,182.806,159.054,182.776C159.556353,182.808739,160.044991,182.60403,160.374,182.223C160.528,182.038,160.589,181.917,160.774,181.917C160.897,181.917,160.958,182.009,160.958,182.193C160.958,182.377,160.805,183.145,160.713,184.093C160.651,184.706,160.589,186.12,160.589,186.335C160.589,186.611,160.589,186.918,160.282,186.918C160.098,186.918,160.038,186.703,160.038,186.487C160.02214,186.162457,159.95984,185.841863,159.853,185.535C159.585373,184.896826,158.976952,184.467399,158.286,184.429C157.519,184.337,154.262,184.337,153.741,184.337C153.587,184.337,153.526,184.399,153.526,184.614Z" transform="matrix(1 0 0 1 -45.101 -172.398489)" fill="rgb(0,36,85)" stroke="none" stroke-width="1"/><path id="e9aXNtWyUQ512" d="M169.638,184.36C169.638,179.107,173.108,172.319,182.322,172.319C189.97,172.319,194.732,176.773,194.732,183.806C194.732,190.839,189.818,196.4,182.016,196.4C173.2,196.4,169.638,189.8,169.638,184.36ZM190.433,184.943C190.433,178.063,186.47,173.793,181.433,173.793C177.901,173.793,173.876,175.759,173.876,183.408C173.876,189.796,177.408,194.864,183.306,194.864C185.456,194.864,190.433,193.82,190.433,184.943Z" transform="matrix(1 0 0 1 -49.327 -172.231)" fill="rgb(0,36,85)" stroke="none" stroke-width="1"/><path id="e9aXNtWyUQ513" d="M207.519,181.753C207.519,177.084,207.519,176.225,207.459,175.242C207.396,174.198,207.151,173.706,206.138,173.491C205.741824,173.422339,205.340013,173.391533,204.938,173.399C204.601,173.399,204.415,173.337,204.415,173.122C204.415,172.907,204.63,172.846,205.091,172.846C206.718,172.846,208.653,172.938,209.298,172.938C210.343,172.938,212.677,172.846,213.629,172.846C215.602956,172.70659,217.572989,173.166682,219.281,174.166C220.592256,175.168782,221.363956,176.723265,221.37,178.374C221.37,180.647,220.417,182.736,217.315,185.254C220.048,188.694,222.168,191.427,223.98,193.332C224.85816,194.396477,226.070499,195.132691,227.42,195.421C227.703623,195.477669,227.991807,195.508462,228.281,195.513C228.525,195.513,228.649,195.604,228.649,195.759C228.649,196.005,228.433,196.066,228.065,196.066L225.15,196.066C224.021752,196.172983,222.885634,195.971475,221.863,195.483C220.542,194.776,219.375,193.332,217.655,190.967C216.427,189.278,215.014,187.189,214.614,186.728C214.476348,186.570899,214.270604,186.490991,214.063,186.514L211.39,186.452C211.236,186.452,211.144,186.514,211.144,186.699L211.144,187.13C211.144,189.985,211.144,192.411,211.298,193.702C211.389,194.592,211.575,195.268,212.498,195.391C212.995421,195.458973,213.49615,195.500033,213.998,195.514C214.244,195.514,214.368,195.605,214.368,195.76C214.368,195.974,214.152,196.067,213.753,196.067C211.972,196.067,209.699,195.974,209.238,195.974C208.654,195.974,206.719,196.067,205.49,196.067C205.09,196.067,204.877,195.974,204.877,195.76C204.877,195.606,205,195.514,205.369,195.514C205.739117,195.514337,206.108099,195.473078,206.469,195.391C207.084,195.268,207.237,194.591,207.361,193.702C207.514,192.411,207.514,189.985,207.514,187.159ZM211.144,184.179C211.144,184.517,211.206,184.64,211.421,184.733C212.179949,184.948108,212.96625,185.051196,213.755,185.039C214.521776,185.145456,215.30051,184.959074,215.936,184.517C216.857,183.841,217.748,182.428,217.748,179.91C217.748,175.548,214.861,174.29,213.048,174.29C212.502679,174.264403,211.956275,174.30571,211.421,174.413C211.206,174.474,211.144,174.597,211.144,174.844Z" transform="matrix(1 0 0 1 -55.695 -172.327)" fill="rgb(0,36,85)" stroke="none" stroke-width="1"/><path id="e9aXNtWyUQ514" d="M235.906,181.753C235.906,177.084,235.906,176.225,235.845,175.242C235.783,174.198,235.537,173.706,234.524,173.491C234.127822,173.422357,233.726012,173.391551,233.324,173.399C232.987,173.399,232.803,173.337,232.803,173.122C232.803,172.907,233.017,172.846,233.479,172.846C235.106,172.846,237.041,172.938,237.901,172.938C238.854,172.938,240.788,172.846,242.631,172.846C246.47,172.846,251.599,172.846,254.948,176.346C256.930134,178.451805,258.000742,181.255008,257.927,184.146C257.972245,187.330136,256.770706,190.405762,254.579,192.716C253.166,194.16,249.972,196.339,244.289,196.339C243.184,196.339,241.925,196.248,240.757,196.156C239.589,196.064,238.515,195.971,237.747,195.971C237.409,195.971,236.734,195.971,235.996,196.003C235.29,196.003,234.496,196.064,233.876,196.064C233.476,196.064,233.262,195.971,233.262,195.757C233.262,195.603,233.385,195.511,233.753,195.511C234.124785,195.511644,234.495457,195.470384,234.858,195.388C235.473,195.265,235.626,194.588,235.75,193.699C235.903,192.408,235.903,189.982,235.903,187.156ZM239.746,185.132C239.746,188.388,239.777,190.753,239.808,191.332C239.781456,192.123806,239.895557,192.914043,240.145,193.666C240.545,194.25,241.745,194.895,244.169,194.895C247.302,194.895,249.391,194.28,251.233,192.682C253.199,190.993,253.814,188.198,253.814,185.035C253.92327,182.179922,252.85741,179.404856,250.865,177.357C248.474733,175.225257,245.340589,174.121498,242.142,174.285C241.469048,174.274579,240.797361,174.346785,240.142,174.5C239.887071,174.588254,239.732033,174.846511,239.774,175.113C239.743,176.159,239.743,178.83,239.743,181.257Z" transform="matrix(1 0 0 1 -60.892 -172.17)" fill="rgb(0,36,85)" stroke="none" stroke-width="1"/></g><g id="e9aXNtWyUQ515" transform="matrix(1 0 0 1 58.471 123.195)"><g id="e9aXNtWyUQ516" transform="matrix(1 0 0 1 0.000001 0)"><g id="e9aXNtWyUQ517" mask="url(#e9aXNtWyUQ519)"><g id="e9aXNtWyUQ518_tr" transform="translate(119.522,34.674) rotate(68.108016)"><g id="e9aXNtWyUQ518_ts" transform="scale(0.268518,0.268518)"><path id="e9aXNtWyUQ518" d="M142.07225,21.783C143.1336,21.32504,144.26945,21.06412,145.42425,21.013C143.91839,20.92024,142.40774,21.08493,140.95725,21.5C142.13246,20.85175,143.38558,20.35608,144.68625,20.025C140.53125,19.792,133.82712,25.29147,135.71925,23.212C137.61138,21.13253,139.93115,19.4872,142.51925,18.389C135.25223,18.91703,129.03672,23.81145,126.81925,30.752C126.81925,30.752,130.38325,16.563,145.43625,15.652C160.50025,14.725,162.27625,28.482,156.62525,32.509C153.91225,34.451,151.63425,34.612,150.00325,34.276C149.75625,34.287,149.53425,34.287,149.33425,34.276C149.56705,34.53981,149.82088,34.78428,150.09325,35.007C150.37247,35.21815,150.66694,35.40833,150.97425,35.576L148.48425,35.576C147.48155,34.54279,146.67239,33.33803,146.09525,32.019C146.02925,31.854,146.00725,31.753,145.99525,31.736C145.90761,31.49586,145.94995,31.2275,146.10725,31.026C146.26042,30.82386,146.50172,30.70805,146.75525,30.715C147.45876,30.77343,148.16615,30.66552,148.82025,30.4C150.66325,29.633,151.11825,27.573,150.34825,25.6C149.36725,23.35,146.88825,21.517,142.65425,23.217C141.47703,23.73758,140.36863,24.40161,139.35425,25.194C135.63819,27.88436,132.6425,31.44916,130.63225,35.573L128.98025,35.573C131.04184,30.93133,134.30262,26.92257,138.42725,23.959C139.54529,23.08236,140.77007,22.35119,142.07225,21.783ZM160.058,35.571L157.021,35.571C157.354,35.413,157.7,35.252,158.081,35.034C164.23833,31.82792,166.92429,24.44772,164.268,18.034C163.51158,16.23537,162.39812,14.6089,160.995,13.253L160.919,13.287C157.835,10.521,151.347,8.252,145.172,9.287C138.36498,10.26686,132.25792,13.99616,128.277,19.604C124.93855,24.45935,122.48447,29.8665,121.028,35.576L119.522,35.576C120.4942,31.67859,121.87902,27.89589,123.653,24.292C124.8319,21.84669,126.28129,19.54128,127.974,17.419C127.997,17.391,128.019,17.358,128.03,17.358C128.231,17.103,128.443,16.857,128.643,16.632C131.35764,13.23882,134.84704,10.54676,138.818,8.782C140.69956,7.99742,142.68483,7.48948,144.712,7.274C155.858,6.08,163.083,11.028,165.698,17.447C168.40709,24.05917,166.04067,31.66362,160.058,35.571Z" transform="translate(-119.521996,-34.674)" fill="rgb(137,210,221)" stroke="none" stroke-width="1"/></g></g><mask id="e9aXNtWyUQ519" mask-type="luminance"><rect id="e9aXNtWyUQ520" width="64.847" height="46.083003" rx="0" ry="0" transform="matrix(1 0 0 1 108.51547 -11.409003)" fill="rgb(210,219,237)" stroke="none" stroke-width="0"/></mask></g></g><g id="e9aXNtWyUQ521" mask="url(#e9aXNtWyUQ523)"><g id="e9aXNtWyUQ522_tr" transform="translate(119.297264,34.674) rotate(-58.179677)"><g id="e9aXNtWyUQ522_ts" transform="scale(0.388626,0.388615)"><path id="e9aXNtWyUQ522" d="M139.331,130.754C139.176928,130.943373,139.115005,131.191434,139.162,131.431C139.215913,131.670778,139.377045,131.872471,139.599,131.978C142.891,133.451,144.679,135.349,145.46,137.253C147.001,141.017,144.7,145.198,140.914,146.791C137.163,148.316,132.027,147.397,127.749,140.261C123.192,131.874,109.39,125.069,99.34,126.773C99.017722,126.825928,98.763076,127.074977,98.703,127.396C98.65383,127.719446,98.809373,128.039684,99.094,128.201C105.682,131.925,115.733,141.523,118.803,148.134C102.353066,141.212832,83.826957,141.112468,67.303,147.855C66.947322,147.995267,66.747351,148.374223,66.832301,148.747004C66.917251,149.119784,67.261667,149.374685,67.643,149.347C71.647557,149.036312,75.669704,149.024613,79.676,149.312C92.75002,151.010551,105.408885,155.060439,117.041,161.266L122.132,161.266C105.74,152.131,89.301,147.404,73.12,147.566C82.32,145.814,103.494,143.666,121.943,155.545C124.836,157.404,127.649,159.318,130.408,161.267L141.808,161.267C141.529,160.922,141.35,160.682,141.35,160.682C144.712452,160.662065,148.015102,159.790992,150.95,158.15C144.205,160.543,135.641,155.926,135.641,155.926C141.784,158.186,145.355,155.237,145.355,155.237C141.19,156.627,132.011,153.278,125.155,146.237C127.712211,148.073273,130.507121,149.553485,133.463,150.637C124.228,146.401,122.863,142.565,118.377,135.937C115.863,132.237,110.603,129.972,106.438,128.706C108.011423,128.825327,109.566487,129.120843,111.074,129.587C112.124,129.946,113.174,130.358,114.201,130.827C117.905233,132.664807,121.07676,135.42113,123.413,138.833C131.675,150.508,138.23,153.255,145.746,150.245C154.701,146.657,150.581,134.237,150.581,134.237C150.704439,135.674443,150.541286,137.12209,150.101,138.496C150.092247,134.737488,147.260208,131.585946,143.524,131.177C147.124,129.641,157.907,126.377,163.077,139.116C163.077,139.116,159.777,126.516,147.99,127.531C150.547892,126.995705,153.208061,127.250283,155.618,128.261C160.259081,130.177268,163.644043,134.275164,164.649427,139.194607C165.654811,144.114049,164.149086,149.211452,160.632,152.795L160.598,152.856L159.727,153.862C160.353,154.721,159.527,157.38,159.527,157.38C159.527,157.38,160.935,155.107,161.817,153.834C161.927,153.744,162.117,153.597,162.353,153.434C162.025521,154.466981,161.904223,155.554246,161.996,156.634C170.596,146.234,178.066,148.167,181.717,150.197C182.365876,150.591522,182.974754,151.048348,183.535,151.561C183.269885,151.522773,183.002763,151.500067,182.735,151.493C181.082476,151.160921,179.371485,151.272365,177.776,151.816C172.604,152.829,170.808,156.874,170.451,161.269L180.48,161.269C180.58,156.3,182.401,154.693,183.78,154.1C184.248456,153.907123,184.746876,153.797153,185.253,153.775C185.446898,153.758224,185.642146,153.76629,185.834,153.799C186.148859,153.842758,186.459753,153.695947,186.626,153.425C186.65,153.374,186.637,153.317,186.659,153.263C186.759,153.363,186.817,153.435,186.817,153.435C186.774275,153.360496,186.725086,153.289892,186.67,153.224C186.746878,152.995986,186.709685,152.744931,186.57,152.549C180.952,145.261,173.056,146.429,167.67,148.713C166.533461,149.187765,165.426171,149.729723,164.354,150.336C166.871916,145.937115,167.21341,140.620885,165.279,135.936C163.593558,131.804759,160.319526,128.523521,156.192,126.829C152.619372,125.317805,148.587517,125.315281,145.013,126.822C142.861865,127.715396,140.925103,129.055655,139.331,130.754ZM104.489,128.142C104.529601,128.145269,104.570399,128.145269,104.611,128.142L104.578,128.17C104.543,128.164,104.522,128.153,104.489,128.143Z" transform="translate(-186.592263,-160.366999)" fill="rgb(137,210,221)" stroke="none" stroke-width="1"/></g></g><mask id="e9aXNtWyUQ523" mask-type="luminance"><rect id="e9aXNtWyUQ524" width="178.929" height="45.994" rx="0" ry="0" transform="matrix(1 0 0 1 -3.605 -11.134003)" fill="rgb(210,219,237)" stroke="none" stroke-width="0"/></mask></g></g><g id="e9aXNtWyUQ525" transform="matrix(1 0 0 1 22.028 128.123)"><path id="e9aXNtWyUQ526" d="M31.3,146.044L31.5,146.044C32.887,144.535,38.842,138.458,40.025,137.071C41.166,135.725,42.064,134.705,42.064,134.012C42.064,133.564,41.901,133.278,41.493,133.196C41.125,133.115,40.963,133.033,40.963,132.788C40.963,132.503,41.163,132.421,41.615,132.421C42.472,132.421,44.715,132.544,45.815,132.544C47.08,132.544,49.323,132.421,50.587,132.421C50.995,132.421,51.281,132.503,51.281,132.788C51.281,133.073,51.081,133.156,50.669,133.156C49.862213,133.184795,49.064465,133.335848,48.303,133.604C46.640329,134.307976,45.142014,135.349645,43.903,136.663C42.638,137.886,36.479,144.005,35.092,145.473C36.56,147.39,44.555,155.997,46.146,157.505C47.941,159.218,49.776,161.055,51.979,161.911C52.776665,162.2693,53.63378,162.476798,54.507,162.523C54.793,162.523,55.038,162.604,55.038,162.85C55.038,163.135,54.838,163.258,54.059,163.258L50.507,163.258C49.283,163.258,48.55,163.258,47.693,163.176C45.493,162.976,44.393,162.076,42.635,160.524C40.84,158.933,32.805,149.511,31.948,148.324L31.5,147.713L31.3,147.713L31.3,151.425C31.3,155.176,31.3,158.399,31.422,160.153C31.504,161.295,31.871,162.192,32.891,162.353C33.553921,162.446256,34.221727,162.500682,34.891,162.516C35.217,162.516,35.42,162.639,35.42,162.843C35.42,163.128,35.094,163.251,34.646,163.251C32.361,163.251,29.792,163.128,28.772,163.128C27.834,163.128,25.264,163.251,23.633,163.251C23.103,163.251,22.817,163.128,22.817,162.843C22.817,162.643,22.98,162.516,23.47,162.516C23.963872,162.516421,24.45625,162.46175,24.938,162.353C25.754,162.19,25.958,161.293,26.121,160.11C26.321,158.397,26.321,155.174,26.321,151.423L26.321,144.243C26.321,138.043,26.321,136.901,26.239,135.596C26.157,134.21,25.831,133.557,24.485,133.271C23.959752,133.179838,23.427006,133.138986,22.894,133.149C22.446,133.149,22.2,133.066,22.2,132.781C22.2,132.496,22.486,132.414,23.1,132.414C25.262,132.414,27.832,132.537,28.81,132.537C29.788,132.537,32.358,132.414,33.745,132.414C34.317,132.414,34.602,132.496,34.602,132.781C34.602,133.066,34.358,133.149,34.031,133.149C33.647327,133.153373,33.264939,133.194224,32.889,133.271C31.789,133.471,31.461,134.171,31.38,135.596C31.298,136.901,31.298,138.044,31.298,144.243Z" transform="matrix(1 0 0 1 -22.2 -131.85)" fill="rgb(0,36,85)" stroke="none" stroke-width="1"/><path id="e9aXNtWyUQ527" d="M64.669,144.249C64.669,138.049,64.669,136.907,64.587,135.602C64.505,134.216,64.179,133.563,62.833,133.277C62.307748,133.185874,61.775005,133.145022,61.242,133.155C60.793,133.155,60.548,133.072,60.548,132.787C60.548,132.502,60.833,132.42,61.448,132.42C63.609,132.42,66.179,132.543,67.036,132.543C68.422,132.543,71.523,132.42,72.786,132.42C75.356,132.42,78.086,132.664,80.292,134.173C82.032586,135.505541,83.056831,137.569915,83.065,139.762C83.065,142.781,81.8,145.554,77.681,148.898C81.311,153.466,84.126,157.098,86.532,159.626C88.816,161.991,90.488,162.277,91.1,162.399C91.476221,162.474081,91.85842,162.515246,92.242,162.522C92.568,162.522,92.731,162.645,92.731,162.849C92.731,163.175,92.445,163.257,91.957,163.257L88.081,163.257C85.797,163.257,84.781,163.057,83.716,162.482C81.962,161.543,80.416,159.627,78.128,156.482C76.497,154.239,74.62,151.465,74.09,150.853C73.906841,150.643348,73.632719,150.536537,73.356,150.567L69.807,150.486C69.607,150.486,69.48,150.567,69.48,150.812L69.48,151.383C69.48,155.176,69.48,158.399,69.68,160.112C69.803,161.295,70.048,162.192,71.271,162.355C71.934273,162.445047,72.601899,162.499458,73.271,162.518C73.597,162.518,73.76,162.641,73.76,162.845C73.76,163.13,73.475,163.253,72.944,163.253C70.579,163.253,67.56,163.13,66.944,163.13C66.17,163.13,63.6,163.253,61.968,163.253C61.439,163.253,61.153,163.13,61.153,162.845C61.153,162.645,61.316,162.518,61.806,162.518C62.299869,162.518371,62.792242,162.463701,63.274,162.355C64.09,162.192,64.294,161.295,64.457,160.112C64.657,158.399,64.657,155.176,64.657,151.425ZM69.481,147.472C69.481,147.92,69.563,148.084,69.849,148.206C70.856968,148.492157,71.901316,148.629607,72.949,148.614C73.968605,148.756852,75.004521,148.508946,75.849,147.92C77.073,147.02,78.256,145.147,78.256,141.801C78.256,136.01,74.422,134.338,72.016,134.338C71.291391,134.304519,70.565398,134.359254,69.854,134.501C69.568,134.583,69.486,134.746,69.486,135.072Z" transform="matrix(1 0 0 1 -29.221 -131.85)" fill="rgb(0,36,85)" stroke="none" stroke-width="1"/><path id="e9aXNtWyUQ528" d="M99.972,144.249C99.972,138.049,99.972,136.907,99.89,135.602C99.808,134.216,99.482,133.563,98.136,133.277C97.610747,133.18588,97.078005,133.145028,96.545,133.155C96.096,133.155,95.851,133.072,95.851,132.787C95.851,132.502,96.137,132.42,96.751,132.42C98.913,132.42,101.483,132.543,102.706,132.543C103.685,132.543,106.255,132.42,107.723,132.42C108.336,132.42,108.623,132.502,108.623,132.787C108.623,133.072,108.378,133.155,107.97,133.155C107.57264,133.157152,107.176436,133.198012,106.787,133.277C105.687,133.477,105.359,134.177,105.278,135.602C105.196,136.907,105.196,138.05,105.196,144.249L105.196,149.959C105.196,155.874,106.379,158.359,108.377,159.992C109.814652,161.155599,111.629455,161.750926,113.477,161.665C115.569026,161.69706,117.590141,160.907141,119.106,159.465C121.349,157.222,121.472,153.55,121.472,149.35L121.472,144.25C121.472,138.05,121.472,136.908,121.39,135.603C121.308,134.217,120.982,133.564,119.636,133.278C119.151206,133.191639,118.659399,133.150795,118.167,133.156C117.719,133.156,117.473,133.073,117.473,132.788C117.473,132.503,117.759,132.421,118.33,132.421C120.411,132.421,122.98,132.544,123.021,132.544C123.51,132.544,126.08,132.421,127.671,132.421C128.242,132.421,128.528,132.503,128.528,132.788C128.528,133.073,128.283,133.156,127.794,133.156C127.396311,133.158182,126.999778,133.199041,126.61,133.278C125.51,133.478,125.183,134.178,125.101,135.603C125.02,136.908,125.02,138.051,125.02,144.25L125.02,148.615C125.02,153.143,124.571,157.956,121.145,160.892C118.794607,162.916383,115.759943,163.966926,112.661,163.829C110.499,163.829,106.584,163.706,103.605,161.015C101.525,159.139,99.975,156.121,99.975,150.206Z" transform="matrix(1 0 0 1 -35.684 -131.85)" fill="rgb(0,36,85)" stroke="none" stroke-width="1"/><path id="e9aXNtWyUQ529" d="M142.664,162.639C142.012,162.354,141.89,162.15,141.89,161.252C141.89,159.01,142.053,156.561,142.09,155.909C142.13,155.297,142.253,154.849,142.579,154.849C142.946,154.849,142.987,155.216,142.987,155.542C143.023636,156.24808,143.146893,156.946984,143.354,157.623C144.064436,160.213445,146.508097,161.939466,149.187,161.743C152.858,161.743,154.653,159.255,154.653,157.093C154.653,155.093,154.042,153.218,150.653,150.567L148.777,149.099C144.29,145.59,142.741,142.736,142.741,139.432C142.741,134.945,146.493,131.724,152.163,131.724C153.994431,131.70275,155.819919,131.936321,157.587,132.418C157.953,132.499,158.158,132.618,158.158,132.907C158.158,133.437,157.995,134.62,157.995,137.801C157.995,138.701,157.872,139.025,157.546,139.025C157.261,139.025,157.138,138.78,157.138,138.291C157.061361,137.307962,156.692178,136.370377,156.078,135.599C155.022989,134.231131,153.354403,133.480699,151.631,133.599C148.613,133.599,146.778,135.352,146.778,137.799C146.778,139.675,147.716,141.099,151.101,143.673L152.243,144.528C157.178,148.24,158.932,151.054,158.932,154.928C158.983441,157.802266,157.529595,160.494574,155.098,162.028C153.143531,163.20079,150.890878,163.781582,148.613,163.7C146.576691,163.77946,144.547289,163.417517,142.664,162.639Z" transform="matrix(1 0 0 1 -44.112 -131.722)" fill="rgb(0,36,85)" stroke="none" stroke-width="1"/><path id="e9aXNtWyUQ530" d="M173.722,144.176C173.722,137.976,173.722,136.834,173.641,135.529C173.559,134.143,173.233,133.49,171.887,133.204C171.361746,133.112886,170.829005,133.072035,170.296,133.082C169.847,133.082,169.602,132.999,169.602,132.714C169.602,132.429,169.888,132.347,170.502,132.347C171.602,132.347,172.787,132.387,173.802,132.387C174.862,132.429,175.802,132.47,176.373,132.47C177.673,132.47,185.795,132.47,186.573,132.429C187.161606,132.379066,187.747113,132.297616,188.327,132.185C188.539018,132.111267,188.757227,132.056715,188.979,132.022C189.179,132.022,189.225,132.185,189.225,132.388C189.070832,133.265843,188.961689,134.151001,188.898,135.04C188.857,135.448,188.775,137.24,188.698,137.732C188.658,137.932,188.575,138.181,188.29,138.181C188.005,138.181,187.923,137.981,187.923,137.609C187.926274,137.109309,187.843743,136.612764,187.679,136.141C187.393,135.407,186.985,134.917,184.946,134.673C184.252,134.591,179.969,134.51,179.153,134.51C178.953,134.51,178.867,134.633,178.867,134.918L178.867,145.238C178.867,145.523,178.909,145.686,179.153,145.686C180.053,145.686,184.742,145.686,185.679,145.604C186.385331,145.650263,187.083616,145.432116,187.638,144.992C187.923,144.665,188.086,144.462,188.29,144.462C188.454,144.462,188.576,144.543,188.576,144.788C188.576,145.033,188.413,145.688,188.25,147.766C188.208,148.582,188.086,150.213,188.086,150.499C188.086,150.826,188.086,151.273,187.719,151.273C187.617993,151.287973,187.515854,151.254303,187.443553,151.182198C187.371251,151.110094,187.337303,151.008047,187.352,150.907C187.330723,150.414228,187.276266,149.92345,187.189,149.438C186.989,148.623,186.415,148.011,184.905,147.847C184.131,147.765,180.093,147.725,179.113,147.725C178.913,147.725,178.868,147.888,178.868,148.133L178.868,151.356C178.868,152.741,178.829,156.494,178.868,157.677C178.95,160.492,179.603,161.103,183.763,161.103C185.060372,161.182308,186.361069,161.016413,187.597,160.614C188.659,160.124,189.148,159.269,189.433,157.595C189.515,157.147,189.596,156.984,189.881,156.984C190.208,156.984,190.208,157.309,190.208,157.718C190.138929,159.237661,189.961815,160.750481,189.678,162.245C189.392,163.305,189.025,163.305,187.478,163.305C184.419,163.305,182.178,163.223,180.421,163.183C178.666,163.101,177.402,163.06,176.18,163.06C175.731,163.06,174.833,163.06,173.854,163.101C172.916,163.101,171.854,163.183,171.041,163.183C170.51,163.183,170.225,163.06,170.225,162.775C170.225,162.575,170.388,162.448,170.878,162.448C171.371541,162.448413,171.863587,162.393742,172.345,162.285C173.161,162.122,173.365,161.225,173.528,160.042C173.728,158.329,173.728,155.106,173.728,151.355Z" transform="matrix(1 0 0 1 -49.186 -131.777)" fill="rgb(0,36,85)" stroke="none" stroke-width="1"/></g><rect id="e9aXNtWyUQ531" width="198.076" height="4.555" rx="0" ry="0" transform="matrix(1 0 0 1 21.259 157.869)" fill="rgb(0,36,85)" stroke="none" stroke-width="1"/><g id="e9aXNtWyUQ532" transform="matrix(1 0 0 1 217.892 181.39)"><path id="e9aXNtWyUQ533" d="M262.6,201.023C262.197841,200.665106,261.964411,200.154814,261.956616,199.616521C261.94882,199.078228,262.167374,198.56139,262.559,198.192C263.015464,197.814579,263.598994,197.626032,264.19,197.665C264.440613,197.664719,264.690923,197.682431,264.939,197.718C265.133,197.747,265.303,197.782,265.455,197.8C265.513,197.8,265.532,197.829,265.532,197.858C265.532,197.887,265.52,197.958,265.508,198.134C265.496,198.31,265.497,198.572,265.491,198.672C265.484,198.741,265.467,198.795,265.42,198.795C265.373,198.795,265.368,198.754,265.368,198.69C265.360464,198.516634,265.289253,198.352138,265.168,198.228C264.881914,198.01101,264.525899,197.907053,264.168,197.936C263.820204,197.904231,263.473193,198.00455,263.196,198.217C262.853555,198.555996,262.680138,199.030053,262.723,199.51C262.699936,199.954462,262.856423,200.389553,263.157298,200.717507C263.458172,201.04546,263.8782,201.23877,264.323,201.254C264.78,201.254,265.031,201.218,265.235,200.989C265.320398,200.89433,265.380884,200.779888,265.411,200.656C265.423,200.58,265.435,200.556,265.476,200.556C265.517,200.556,265.536,200.603,265.536,200.643C265.515344,200.865837,265.477905,201.086797,265.424,201.304C265.414258,201.376251,265.360268,201.43464,265.289,201.45C264.986777,201.535799,264.672952,201.573593,264.359,201.562C263.727017,201.598962,263.102782,201.407681,262.6,201.023Z" transform="matrix(1 0 0 1 -261.959 -197.062)" fill="rgb(0,36,85)" stroke="none" stroke-width="1"/><path id="e9aXNtWyUQ534" d="M267.127,201.818C267.125366,201.723,267.162315,201.631397,267.229406,201.564118C267.296496,201.496838,267.387996,201.459632,267.483,201.461C267.576306,201.455171,267.667841,201.488364,267.735724,201.552644C267.803606,201.616925,267.841737,201.706515,267.841,201.8C267.846005,201.898812,267.809778,201.99527,267.740965,202.066358C267.672151,202.137446,267.576922,202.176789,267.478,202.175C267.382908,202.1782,267.290826,202.141409,267.22412,202.073563C267.157414,202.005717,267.122189,201.913024,267.127,201.818Z" transform="matrix(1 0 0 1 -262.905 -197.757)" fill="rgb(0,36,85)" stroke="none" stroke-width="1"/><path id="e9aXNtWyUQ535" d="M268.945,199.191C268.945,198.436,268.945,198.291,268.939,198.138C268.933,197.985,268.88,197.915,268.717,197.868C268.649556,197.854344,268.580792,197.848306,268.512,197.85C268.46,197.85,268.425,197.833,268.425,197.798C268.425,197.763,268.465,197.752,268.54,197.752C268.81,197.752,269.14,197.763,269.284,197.763C269.494,197.763,269.904,197.752,270.137,197.752C270.481574,197.714831,270.826901,197.815087,271.098,198.031C271.258734,198.189764,271.350976,198.405112,271.355,198.631C271.350694,198.964137,271.210111,199.280969,270.965997,199.5077C270.721883,199.734432,270.395548,199.851269,270.063,199.831C270.011928,199.831883,269.960846,199.82988,269.91,199.825C269.89444,199.826965,269.878749,199.822544,269.866502,199.812747C269.854256,199.80295,269.846499,199.788611,269.845,199.773C269.845,199.732,269.904,199.708,270.015,199.708C270.42134,199.662135,270.722823,199.309532,270.705,198.901C270.721192,198.622383,270.610995,198.351298,270.405,198.163C270.261594,198.040441,270.078632,197.974006,269.89,197.976C269.814908,197.973489,269.739838,197.981568,269.667,198C269.638,198.011,269.627,198.041,269.627,198.093L269.627,200.065C269.627,200.522,269.627,200.914,269.65,201.13C269.667,201.271,269.697,201.364,269.85,201.387C269.937149,201.399031,270.025024,201.405045,270.113,201.405C270.173,201.405,270.196,201.434,270.196,201.457C270.196,201.48,270.154,201.51,270.103,201.51C269.757,201.51,269.393,201.493,269.26,201.493C269.143,201.493,268.815,201.51,268.61,201.51C268.545,201.51,268.51,201.493,268.51,201.457C268.51,201.421,268.528,201.405,268.592,201.405C268.65318,201.406611,268.714321,201.400564,268.774,201.387C268.879,201.364,268.909,201.272,268.926,201.125C268.949,200.914,268.949,200.525,268.949,200.065Z" transform="matrix(1 0 0 1 -263.143 -197.078)" fill="rgb(0,36,85)" stroke="none" stroke-width="1"/><path id="e9aXNtWyUQ536" d="M271.828,201.818C271.826917,201.72299,271.864182,201.631555,271.931368,201.564368C271.998555,201.497182,272.08999,201.459917,272.185,201.461C272.278048,201.455446,272.369222,201.488796,272.436726,201.553076C272.504231,201.617357,272.541998,201.706791,272.541,201.8C272.546293,201.898715,272.5103,201.995186,272.441641,202.066311C272.372982,202.137435,272.277841,202.176808,272.179,202.175C272.083996,202.177894,271.992096,202.141006,271.925459,202.07323C271.858822,202.005453,271.823496,201.912941,271.828,201.818Z" transform="matrix(1 0 0 1 -263.766 -197.757)" fill="rgb(0,36,85)" stroke="none" stroke-width="1"/><path id="e9aXNtWyUQ537" d="M274.155,200.233C274.126,200.233,274.119,200.24,274.108,200.269L273.833,200.936C273.791071,201.031047,273.765382,201.132454,273.757,201.236C273.757,201.323,273.804,201.376,273.962,201.376L274.038,201.376C274.102,201.376,274.114,201.4,274.114,201.428C274.114,201.456,274.085,201.481,274.032,201.481C273.862,201.481,273.622,201.464,273.459,201.464C273.407,201.464,273.131,201.481,272.859,201.481C272.795,201.481,272.766,201.47,272.766,201.428C272.765563,201.412996,272.771757,201.398561,272.782934,201.388541C272.79411,201.378521,272.809133,201.373933,272.824,201.376C272.87,201.376,272.93,201.37,272.976,201.37C273.21,201.335,273.298,201.183,273.403,200.931L274.748,197.801C274.807,197.661,274.848,197.601,274.901,197.601C274.977,197.601,275.001,197.648,275.052,197.759C275.176,198.034,276.036,200.07,276.363,200.826C276.563,201.276,276.709,201.34,276.802,201.357C276.865738,201.36823,276.930285,201.374249,276.995,201.375C277.042,201.375,277.065,201.392,277.065,201.427C277.065,201.462,277.036,201.48,276.843,201.48C276.65,201.48,276.287,201.48,275.855,201.469C275.761,201.463,275.702,201.463,275.702,201.427C275.702,201.391,275.714,201.38,275.767,201.375C275.789132,201.368015,275.807139,201.351764,275.81635,201.330462C275.825562,201.309161,275.825069,201.28491,275.815,201.264L275.415,200.264C275.408352,200.24077,275.386044,200.225618,275.362,200.228ZM275.255,199.959C275.279,199.959,275.284,199.948,275.279,199.93L274.793,198.667C274.787,198.65,274.782,198.62,274.77,198.62C274.758,198.62,274.746,198.65,274.741,198.667L274.241,199.925C274.23,199.948,274.241,199.959,274.258,199.959Z" transform="matrix(1 0 0 1 -263.938 -197.051)" fill="rgb(0,36,85)" stroke="none" stroke-width="1"/><path id="e9aXNtWyUQ538" d="M278.15,201.818C278.148633,201.722731,278.185944,201.630977,278.253411,201.563699C278.320877,201.496421,278.412735,201.459366,278.508,201.461C278.601048,201.455446,278.692222,201.488796,278.759726,201.553076C278.827231,201.617357,278.864998,201.706791,278.864,201.8C278.868991,201.898635,278.832899,201.994932,278.764306,202.065987C278.695714,202.137043,278.60075,202.176509,278.502,202.175C278.406825,202.178179,278.314657,202.141416,278.247798,202.073607C278.180938,202.005798,278.145479,201.91312,278.15,201.818Z" transform="matrix(1 0 0 1 -264.923 -197.757)" fill="rgb(0,36,85)" stroke="none" stroke-width="1"/><path id="e9aXNtWyUQ539" d="M280.5,197.015C280.395317,197.378666,280.322377,197.750727,280.282,198.127C280.259,198.332,280.237,198.419,280.201,198.419C280.165,198.419,280.143,198.332,280.118,198.127C280.079203,197.750649,280.006917,197.378508,279.902,197.015C279.902,196.927,280.02,196.927,280.202,196.927C280.384,196.927,280.5,196.927,280.5,197.015Z" transform="matrix(1 0 0 1 -265.243 -196.927)" fill="rgb(0,36,85)" stroke="none" stroke-width="1"/><path id="e9aXNtWyUQ540" d="M281.712,201.433C281.63,201.398,281.612,201.374,281.612,201.263C281.612,200.993,281.636,200.685,281.641,200.602C281.646,200.519,281.666,200.475,281.706,200.475C281.746,200.475,281.759,200.521,281.759,200.556C281.762083,200.643497,281.777916,200.730075,281.806,200.813C281.939086,201.140884,282.273089,201.341122,282.625,201.304C282.805454,201.3231,282.985634,201.265541,283.121596,201.145363C283.257557,201.025184,283.336801,200.853434,283.34,200.672C283.34,200.456,283.286,200.238,282.829,199.972L282.529,199.797C281.921,199.44,281.723,199.107,281.723,198.667C281.723,198.059,282.308,197.667,283.023,197.667C283.26882,197.664552,283.514004,197.692429,283.753,197.75C283.801,197.761,283.823,197.779,283.823,197.813C283.823,197.878,283.806,198.018,283.806,198.413C283.806,198.519,283.783,198.571,283.741,198.571C283.699,198.571,283.69,198.542,283.69,198.483C283.681029,198.362092,283.633738,198.247193,283.555,198.155C283.410511,197.991919,283.198324,197.905418,282.981,197.921C282.613,197.921,282.281,198.115,282.281,198.454C282.281,198.676,282.364,198.854,282.825,199.109L283.036,199.226C283.715,199.6,283.926,199.98,283.926,200.432C283.93301,200.811794,283.736635,201.166412,283.411,201.362C283.151438,201.51518,282.851752,201.586617,282.551,201.567C282.26527,201.57748,281.980251,201.531958,281.712,201.433Z" transform="matrix(1 0 0 1 -265.557 -197.062)" fill="rgb(0,36,85)" stroke="none" stroke-width="1"/></g></g></svg>