<svg id="Layer_1" data-name="Layer 1" xmlns="http://www.w3.org/2000/svg" viewBox="0 0 150 150"><defs><style>.cls-1{fill:#003067;}.cls-2{fill:#9bd9e4;}.cls-3{fill:#fff;}</style></defs><path class="cls-1" d="M69,81.88c14.24,8.52,37.53,8.88,52,.81,7.25-4,10.93-9.42,11-14.85h0l.09-6.25-1.47.26c-1.62-3.34-4.67-6.51-9.16-9.2-6.89-4.12-16.73-11.51-25.84-11.78-9.71-.29-18.72,6.81-26.2,11-4.56,2.54-7.71,5.62-9.43,8.9l-1.47-.3-.09,5.93h0C58.26,71.9,61.75,77.53,69,81.88Zm7.11-26.07c10.76-6,28.05-5.72,38.62.6s10.41,16.31-.35,22.3c-5.38,3-11.87-1.07-18.86-1.18s-14.47,3.74-19.75.58C65.22,71.78,65.37,61.8,76.13,55.81Z"/><path class="cls-1" d="M94.93,89.17c-9.55-.15-19.06-2.4-26.27-6.71s-11-10-10.86-16l.11-6.9,1.78.37a24.17,24.17,0,0,1,9.46-8.73c1.51-.84,3.07-1.79,4.73-2.8,6.43-3.93,13.71-8.38,21.54-8.26h.28c7.72.22,15.83,5.36,22.34,9.49,1.36.86,2.64,1.67,3.83,2.39a24.13,24.13,0,0,1,9.19,9l1.79-.33-.1,7.09c-.09,5.93-4.13,11.42-11.36,15.44S104.47,89.32,94.93,89.17ZM59.18,65.83h0l0,.55c-.23,5.53,3.39,10.83,10.2,14.9h0c14,8.39,37.06,8.75,51.35.8,6.79-3.78,10.57-8.85,10.66-14.27l.08-5.42-1.17.21-.23-.47c-1.6-3.31-4.68-6.39-8.89-8.91-1.2-.72-2.5-1.54-3.86-2.4-6.37-4-14.31-9.07-21.65-9.29H95.4C88,41.42,80.86,45.76,74.59,49.6c-1.67,1-3.24,2-4.77,2.83-4.29,2.38-7.46,5.36-9.17,8.62l-.24.46-1.16-.24ZM80.65,80a10.24,10.24,0,0,1-5.22-1.35c-5.33-3.19-8.22-7.4-8.15-11.87s3.09-8.59,8.52-11.61c10.93-6.08,28.56-5.81,39.3.61,5.33,3.19,8.23,7.41,8.16,11.88s-3.1,8.58-8.52,11.61c-3.6,2-7.56,1.07-11.74.09a35.92,35.92,0,0,0-7.47-1.19,39,39,0,0,0-7.68.94A36.76,36.76,0,0,1,80.65,80Zm14.9-3.2a37.19,37.19,0,0,1,7.76,1.23c4.09,1,7.63,1.79,10.76,0,5-2.77,7.76-6.48,7.82-10.44s-2.6-7.74-7.49-10.67C104,50.8,87,50.53,76.47,56.41c-5,2.77-7.76,6.48-7.82,10.43s2.59,7.75,7.49,10.68c3.1,1.86,7.16,1.09,11.46.28A40.36,40.36,0,0,1,95.55,76.84Z"/><path class="cls-2" d="M69.12,75.25c14.24,8.52,37.54,8.89,52,.82s14.7-21.53.46-30-37.53-8.88-52-.81S54.88,66.73,69.12,75.25Zm7.12-26.06c10.76-6,28.05-5.72,38.61.6s10.42,16.31-.34,22.3-28.05,5.72-38.62-.6S65.48,55.18,76.24,49.19Z"/><path class="cls-1" d="M95,82.55c-9.55-.15-19.06-2.4-26.26-6.71h0c-7.11-4.25-11-9.86-10.88-15.79S62,48.64,69.25,44.61c14.67-8.16,38.32-7.79,52.73.83,7.1,4.25,11,9.85,10.87,15.78s-4.13,11.42-11.36,15.44S104.58,82.69,95,82.55Zm.66-42.47c-9.3-.15-18.63,1.75-25.77,5.73-6.79,3.78-10.58,8.85-10.66,14.27s3.54,10.6,10.21,14.59h0c14,8.39,37.07,8.75,51.35.8,6.79-3.78,10.58-8.85,10.66-14.27s-3.54-10.6-10.21-14.59C114.26,42.41,105,40.22,95.69,40.08Zm-.57,37c-7.12-.11-14.21-1.79-19.58-5s-8.23-7.4-8.16-11.87,3.1-8.59,8.52-11.61h0c10.94-6.09,28.57-5.81,39.31.61,5.33,3.19,8.22,7.41,8.15,11.87s-3.09,8.59-8.52,11.61S102.23,77.18,95.12,77.07ZM76.57,49.79c-5,2.77-7.76,6.48-7.82,10.43S71.35,68,76.24,70.9c10.36,6.2,27.38,6.47,37.93.59,5-2.77,7.76-6.48,7.82-10.44s-2.59-7.74-7.49-10.67c-10.36-6.2-27.38-6.47-37.93-.59Z"/><rect class="cls-2" x="76.77" y="82.6" width="6.52" height="1.05" transform="translate(-4.33 161.84) rotate(-89.11)"/><rect class="cls-2" x="122.03" y="76.26" width="6.52" height="1.05" transform="translate(46.56 200.87) rotate(-89.11)"/><rect class="cls-2" x="113" y="81.02" width="6.52" height="1.05" transform="translate(32.91 196.52) rotate(-89.11)"/><rect class="cls-2" x="77.28" y="49.98" width="6.52" height="1.05" transform="translate(28.78 130.24) rotate(-89.11)"/><rect class="cls-2" x="106" y="49.87" width="6.52" height="1.05" transform="translate(57.17 158.86) rotate(-89.11)"/><path class="cls-3" d="M18.4,101.82a.41.41,0,0,1,.16-.58l48.7-26.86a.72.72,0,0,1,.44,0l4.17,2.5a1.71,1.71,0,0,1,.7,1.38l-.07,4.6a.77.77,0,0,1-.18.5l-48.7,26.85a.41.41,0,0,1-.57-.16Z"/><path class="cls-1" d="M23.4,111a1.13,1.13,0,0,1-.95-.56l-4.65-8.28a1.11,1.11,0,0,1,.43-1.51L67,73.73l.1,0a1.39,1.39,0,0,1,.93.12l4.17,2.5a2.41,2.41,0,0,1,1,2l-.07,4.6a1.42,1.42,0,0,1-.37,1l-.16.12L24,110.85A1.07,1.07,0,0,1,23.4,111Zm-4.28-9.28,4.4,7.82L71.83,82.89l0-4.6a1.05,1.05,0,0,0-.36-.79l-4.09-2.44Z"/><path class="cls-2" d="M18.53,108l4.17,2.49c.39.24.72,0,.73-.53l.07-4.6a1.71,1.71,0,0,0-.7-1.38l-4.17-2.5c-.39-.23-.72,0-.73.53l-.07,4.6A1.74,1.74,0,0,0,18.53,108Z"/><path class="cls-1" d="M23,111.28a1.21,1.21,0,0,1-.62-.19l-4.17-2.49a2.41,2.41,0,0,1-1-2l.07-4.6a1.29,1.29,0,0,1,.61-1.16,1.11,1.11,0,0,1,1.15.05l4.17,2.5a2.41,2.41,0,0,1,1,2l-.07,4.6a1.3,1.3,0,0,1-.61,1.17A1.07,1.07,0,0,1,23,111.28Zm-4.09-3.86,3.86,2.31.07-4.37a1.05,1.05,0,0,0-.36-.79l-3.86-2.3-.07,4.37a1,1,0,0,0,.36.78Z"/><polygon class="cls-1" points="72.54 79.78 72.5 82.9 23.43 109.97 23.47 106.92 72.54 79.78"/><rect class="cls-1" x="41.18" y="85.48" width="28.91" height="1.05" transform="translate(-34.62 37.57) rotate(-28.88)"/><rect class="cls-1" x="29.18" y="97.56" width="9.58" height="1.05" transform="translate(-43.15 28.61) rotate(-28.88)"/><path class="cls-2" d="M94.63,73c-13.46-.21-19.83-7.57-19.9-7.66l.8-.68c.08.1,8.11,9.33,25.34,6.88l.15,1A40.26,40.26,0,0,1,94.63,73Z"/><path class="cls-2" d="M84.06,68.63c-6.89-2.93-8.41-7.93-8.47-8.15l1-.29c0,.05,1.47,4.75,7.88,7.47Z"/><path class="cls-2" d="M118.77,64.85a14.44,14.44,0,0,0-5.22-5.49l.56-.89a15.41,15.41,0,0,1,5.59,5.9Z"/><rect class="cls-2" x="71.52" y="81.99" width="1.96" height="1.05" transform="translate(-11.13 153.72) rotate(-89.11)"/></svg>